<svg width="60" height="60" viewBox="0 0 60 60" fill="none" xmlns="http://www.w3.org/2000/svg">
<circle cx="30" cy="30" r="29.5" fill="black" stroke="black"/>
<path fill-rule="evenodd" clip-rule="evenodd" d="M23.3416 27.2617L29.9991 20.6042L36.6623 27.2674L40.5358 23.3938L29.9991 12.8571L19.4681 23.3881L23.3416 27.2617ZM12.8571 29.9986L16.7297 26.126L20.6022 29.9986L16.7297 33.8711L12.8571 29.9986ZM29.9991 39.3958L23.3416 32.7383L19.4623 36.6061L19.468 36.6118L29.9991 47.1429L40.5358 36.6061L36.6622 32.7326L29.9991 39.3958ZM39.3927 30.0013L43.2652 26.1287L47.1377 30.0013L43.2652 33.8738L39.3927 30.0013ZM29.9991 26.0694L33.9297 30L29.9991 33.9363L26.0685 30.0057V29.9943L26.7588 29.304L27.0954 28.9731L29.9991 26.0694Z" fill="#F3BA2F"/>
</svg>
