<svg width="40" height="40" viewBox="0 0 40 40" fill="none" xmlns="http://www.w3.org/2000/svg">
<path d="M39.9998 19.9118C40.0173 23.8674 38.8613 27.7394 36.6782 31.0381C34.495 34.3367 31.3827 36.9139 27.7349 38.4437C24.087 39.9736 20.0674 40.3873 16.1844 39.6326C12.3013 38.878 8.72933 36.9888 5.92001 34.204C3.11069 31.4192 1.19026 27.8639 0.401571 23.9876C-0.387118 20.1114 -0.00864084 16.0883 1.48914 12.4272C2.98692 8.76602 5.53674 5.63124 8.81613 3.41926C12.0955 1.20727 15.9572 0.0174272 19.9129 0.00019015C25.2169 -0.0229229 30.313 2.06188 34.08 5.796C37.847 9.53012 39.9764 14.6077 39.9998 19.9118Z" fill="#8DC63F"/>
<path d="M38.5 19.919C38.5165 23.5774 37.4479 27.1586 35.4292 30.2096C33.4105 33.2606 30.5323 35.6445 27.1587 37.0598C23.7852 38.4751 20.0676 38.8582 16.4763 38.1607C12.885 37.4631 9.58119 35.7163 6.98267 33.1411C4.38414 30.5659 2.60762 27.2779 1.87776 23.6931C1.1479 20.1082 1.49749 16.3874 2.88232 13.0012C4.26715 9.61497 6.62501 6.71548 9.65774 4.66934C12.6905 2.62321 16.2618 1.52235 19.9202 1.50598C24.8256 1.4844 29.5387 3.4121 33.023 6.8651C36.5072 10.3181 38.4773 15.0136 38.5 19.919Z" fill="#F9E988"/>
<path d="M20.3405 2.70456C21.5164 2.49586 22.7198 2.49586 23.8956 2.70456C25.0828 2.89255 26.2304 3.27704 27.2913 3.84225C28.3463 4.42196 29.2579 5.20891 30.1652 5.94659C31.0724 6.68427 31.9753 7.43935 32.8347 8.26543C33.712 9.07865 34.4776 10.0046 35.1115 11.0191C35.7642 12.0255 36.2991 13.1036 36.7057 14.2321C37.4782 16.5017 37.7463 18.9466 37.3608 21.2785H37.2463C36.8594 18.9669 36.3347 16.764 35.5072 14.6683C35.1188 13.613 34.6618 12.5843 34.1391 11.5886C33.5937 10.5928 32.9928 9.62849 32.3391 8.70022C31.6743 7.76178 30.8595 6.93918 29.9275 6.26543C28.9884 5.59587 27.9086 5.16254 26.8637 4.75094C25.8188 4.33935 24.7826 3.91326 23.6927 3.60022C22.6028 3.28717 21.4956 3.05239 20.3391 2.82485L20.3405 2.70456Z" fill="white"/>
<path d="M29.3824 13.3901C28.0404 13.0017 26.6491 12.451 25.2404 11.8944C25.1592 11.5408 24.8462 11.1002 24.2129 10.5626C23.2926 9.764 21.5636 9.78429 20.0694 10.1379C18.4201 9.74951 16.7911 9.61183 15.2274 9.99299C2.4375 13.5162 9.68967 22.1118 4.99402 30.7524C5.66213 32.1698 12.8636 40.4394 23.2839 38.2205C23.2839 38.2205 19.7201 29.6568 27.7621 25.5466C34.2853 22.2002 38.9984 16.0089 29.3824 13.3901Z" fill="#8BC53F"/>
<path d="M30.9622 19.0146C30.9631 19.168 30.9185 19.3181 30.834 19.4461C30.7495 19.5741 30.629 19.6741 30.4876 19.7336C30.3463 19.7931 30.1905 19.8093 30.0399 19.7802C29.8893 19.7512 29.7508 19.6781 29.6417 19.5703C29.5327 19.4624 29.4581 19.3247 29.4273 19.1745C29.3965 19.0242 29.411 18.8683 29.4689 18.7263C29.5268 18.5842 29.6255 18.4626 29.7525 18.3767C29.8795 18.2908 30.0292 18.2445 30.1825 18.2436C30.3881 18.2428 30.5855 18.3235 30.7317 18.468C30.8778 18.6126 30.9607 18.8091 30.9622 19.0146Z" fill="white"/>
<path d="M20.0694 10.1321C21.0013 10.1988 24.3709 11.2915 25.2404 11.8886C24.5158 9.78717 22.0767 9.50746 20.0694 10.1321Z" fill="#009345"/>
<path d="M20.9564 15.4465C20.9567 16.1539 20.7471 16.8456 20.3543 17.434C19.9614 18.0224 19.4029 18.4811 18.7494 18.752C18.0958 19.023 17.3766 19.094 16.6827 18.9562C15.9887 18.8183 15.3513 18.4778 14.8509 17.9776C14.3505 17.4774 14.0097 16.8401 13.8716 16.1462C13.7335 15.4524 13.8042 14.7331 14.0749 14.0795C14.3456 13.4258 14.804 12.8671 15.3923 12.474C15.9805 12.0809 16.6721 11.8711 17.3796 11.8711C17.8492 11.8709 18.3143 11.9632 18.7483 12.1428C19.1822 12.3224 19.5765 12.5858 19.9087 12.9178C20.2408 13.2498 20.5043 13.644 20.6841 14.0779C20.8639 14.5118 20.9564 14.9768 20.9564 15.4465Z" fill="white"/>
<path d="M19.8956 15.4784C19.8956 15.976 19.748 16.4624 19.4716 16.8762C19.1951 17.2899 18.8022 17.6124 18.3424 17.8028C17.8827 17.9933 17.3768 18.0431 16.8888 17.946C16.4007 17.8489 15.9524 17.6093 15.6006 17.2574C15.2487 16.9056 15.0091 16.4573 14.912 15.9692C14.8149 15.4812 14.8648 14.9753 15.0552 14.5156C15.2456 14.0559 15.5681 13.6629 15.9818 13.3865C16.3956 13.11 16.882 12.9625 17.3796 12.9625C18.0469 12.9625 18.6868 13.2275 19.1587 13.6994C19.6305 14.1712 19.8956 14.8111 19.8956 15.4784Z" fill="#58595B"/>
<path d="M33.8592 20.5916C30.9607 22.6336 27.665 24.1829 22.9897 24.1829C20.8012 24.1829 20.3578 21.864 18.9114 22.9974C18.165 23.5858 15.5331 24.9017 13.4447 24.8017C11.3563 24.7017 7.97082 23.4771 7.02734 19.0191C6.65342 23.4771 6.46212 26.7611 4.78821 30.5249C8.12154 35.8626 16.0694 39.98 23.2839 38.2061C22.5085 32.793 27.2389 27.4916 29.9041 24.7785C30.9186 23.751 32.8462 22.0742 33.8592 20.5887V20.5916Z" fill="#8BC53F"/>
<path d="M33.7463 20.7249C32.8463 21.5451 31.7753 22.1524 30.6854 22.6886C29.5823 23.2124 28.4323 23.6312 27.2506 23.9393C26.068 24.2451 24.8347 24.4756 23.5854 24.3625C22.3361 24.2495 21.0593 23.8249 20.2318 22.8886L20.2709 22.8437C21.2854 23.5017 22.4564 23.7336 23.6216 23.7669C24.8027 23.8028 25.9841 23.7056 27.1434 23.477C28.3145 23.2319 29.46 22.8777 30.5651 22.4191C31.6709 21.9625 32.7651 21.4336 33.7071 20.6799L33.7463 20.7249Z" fill="#58595B"/>
</svg>
