<svg width="40" height="40" viewBox="0 0 40 40" fill="none" xmlns="http://www.w3.org/2000/svg">
<circle cx="20" cy="20" r="20" fill="#0052FF"/>
<path d="M35.4286 19.7143C35.4286 11.0355 28.393 4 19.7143 4C11.0355 4 4 11.0355 4 19.7143C4 28.393 11.0355 35.4286 19.7143 35.4286C28.393 35.4286 35.4286 28.393 35.4286 19.7143Z" fill="#0052FF"/>
<path d="M19.7188 25.2388C16.6665 25.2388 14.1942 22.7666 14.1942 19.7143C14.1942 16.662 16.6665 14.1897 19.7188 14.1897C22.4534 14.1897 24.7231 16.1832 25.1605 18.7935H30.7264C30.2569 13.1216 25.5103 8.66516 19.7188 8.66516C13.6187 8.66516 8.66964 13.6142 8.66964 19.7143C8.66964 25.8143 13.6187 30.7634 19.7188 30.7634C25.5103 30.7634 30.2569 26.3069 30.7264 20.635H25.1559C24.7185 23.2454 22.4534 25.2388 19.7188 25.2388Z" fill="white"/>
</svg>
