<svg width="40" height="40" viewBox="0 0 40 40" fill="none" xmlns="http://www.w3.org/2000/svg">
<path fill-rule="evenodd" clip-rule="evenodd" d="M22.3874 17.6971C21.6902 17.5869 20.9743 17.6254 20.2709 17.6191C19.2261 17.6191 18.1813 17.6326 17.1419 17.6129C17.1293 19.5035 17.1293 21.3939 17.1419 23.284C18.3963 23.2706 19.6454 23.2777 20.8972 23.2777C21.5612 23.2777 22.2413 23.3028 22.8775 23.0645C23.3067 22.9109 23.6898 22.651 23.9912 22.3091C24.2926 21.9671 24.5022 21.5543 24.6006 21.1093C24.7485 20.3611 24.6714 19.5421 24.2422 18.8969C23.8354 18.2517 23.123 17.8449 22.3874 17.6971Z" fill="#149F49"/>
<path fill-rule="evenodd" clip-rule="evenodd" d="M20 0C8.9543 0 0 8.9543 0 20C0 31.0457 8.9543 40 20 40C31.0457 40 40 31.0457 40 20C40 8.9543 31.0457 0 20 0ZM11.6667 23.5036C12.7312 23.5224 13.75 22.845 14.1891 21.8835C14.3932 21.433 14.4819 20.9387 14.4471 20.4453C14.4919 19.4901 14.0278 18.5161 13.2151 17.9937C12.767 17.6711 12.2151 17.5457 11.6729 17.5099C11.6667 16.7545 11.6729 16.0063 11.6667 15.2581C12.4471 15.2903 13.2079 14.9292 13.7276 14.3548C14.23 13.7899 14.4878 13.0487 14.4444 12.2939C14.3548 11.3781 13.8172 10.4937 12.9866 10.0744C12.586 9.84229 12.1281 9.75806 11.6703 9.73925C11.6568 8.91308 11.6703 8.09409 11.664 7.27419C15.2186 7.26792 18.7733 7.26165 22.3342 7.27419C23.7473 7.3638 25.1801 7.86201 26.2312 8.83602C26.9387 9.49886 27.4138 10.3721 27.586 11.3262C27.741 12.4677 27.638 13.7133 26.9471 14.6747C26.509 15.3584 25.8378 15.8548 25.1219 16.2294C26.2312 16.655 27.2249 17.4355 27.7796 18.5C28.5412 19.9588 28.5215 21.8038 27.7025 23.2294C27.1407 24.2294 26.1989 24.9839 25.1478 25.4229C24.0968 25.862 22.9283 26.0161 21.793 26.0036H11.6676C11.6649 25.1676 11.6711 24.3351 11.6649 23.5036H11.6667ZM28.3333 32.7222C26.069 32.7482 23.7984 32.7294 21.5233 32.7357C18.2392 32.7294 14.9561 32.7482 11.672 32.7222C11.6523 31.8324 11.6523 30.9355 11.672 30.0385C15.1039 30.0125 18.5367 30.0385 21.9767 30.0323C24.0932 30.0385 26.2159 30.0125 28.3315 30.0385C28.3486 30.9355 28.3486 31.8324 28.3289 32.7222H28.3333Z" fill="#149F49"/>
<path fill-rule="evenodd" clip-rule="evenodd" d="M20.5357 15.1612C21.0967 15.1487 21.6648 15.2132 22.206 15.0384C23.0967 14.7867 23.8968 14.0447 24.0384 13.103C24.1675 12.3288 24.0196 11.4712 23.4775 10.8772C22.9031 10.2383 22.0124 9.92914 21.1675 9.96139H17.1289C17.1352 11.6971 17.1352 13.4255 17.1289 15.1585L20.5357 15.1612Z" fill="#149F49"/>
<path d="M21.7935 26C22.9288 26.0126 24.0964 25.871 25.1483 25.4194C26.2003 24.9678 27.1412 24.2258 27.703 23.2258C28.522 21.8002 28.5417 19.9552 27.78 18.4964C27.2254 17.4319 26.2317 16.6514 25.1223 16.2258C25.8392 15.8513 26.5094 15.3548 26.9476 14.6712C27.6385 13.7097 27.7415 12.4642 27.5865 11.3226C27.4143 10.3685 26.9392 9.49528 26.2317 8.83244C25.1788 7.85842 23.7451 7.36111 22.3347 7.27061C18.7738 7.25806 15.2191 7.26434 11.6644 7.27061C11.6707 8.0905 11.6573 8.9095 11.6707 9.73567C12.1286 9.75448 12.5865 9.83871 12.987 10.0708C13.8186 10.4901 14.3544 11.3746 14.4449 12.2903C14.4883 13.0451 14.2305 13.7863 13.7281 14.3513C13.2048 14.9256 12.444 15.2867 11.6671 15.2545C11.6734 16.0027 11.6671 16.7509 11.6734 17.5063C12.2155 17.5448 12.7702 17.6676 13.2155 17.9902C14.0282 18.5126 14.4924 19.4866 14.4476 20.4418C14.4824 20.9352 14.3937 21.4294 14.1895 21.8799C13.7505 22.8414 12.7316 23.5188 11.6671 23.5C11.6734 24.3316 11.6671 25.164 11.6671 25.9964L21.7935 26ZM24.5999 21.1093C24.5015 21.5544 24.2918 21.9672 23.9905 22.3091C23.6891 22.6511 23.306 22.911 22.8768 23.0645C22.2451 23.3029 21.5605 23.2778 20.8965 23.2778C19.642 23.2778 18.3929 23.2706 17.1411 23.2841C17.1286 21.3934 17.1286 19.503 17.1411 17.6129C18.1806 17.6326 19.2254 17.6192 20.2702 17.6192C20.9736 17.6255 21.6895 17.5869 22.3867 17.6971C23.1223 17.845 23.832 18.2518 24.2379 18.897C24.6707 19.5421 24.7478 20.3611 24.5999 21.1093ZM17.1286 9.96147H21.1671C22.0121 9.92921 22.9028 10.2384 23.4772 10.8772C24.0193 11.4713 24.1671 12.3289 24.0381 13.1031C23.8965 14.0448 23.0964 14.7867 22.2057 15.0385C21.668 15.2133 21.0963 15.1488 20.5354 15.1613H17.1304C17.1349 13.4256 17.1349 11.6971 17.1286 9.96147Z" fill="white"/>
<path d="M21.9742 30.0324C18.536 30.0387 15.1033 30.0127 11.6696 30.0387C11.6498 30.9347 11.6498 31.8308 11.6696 32.7223C14.9536 32.7483 18.2368 32.7295 21.5208 32.7358C23.7923 32.7295 26.0629 32.7483 28.3309 32.7223C28.3506 31.8326 28.3506 30.9356 28.3309 30.0387C26.2135 30.0127 24.0907 30.0387 21.9742 30.0324Z" fill="#73C692"/>
</svg>
