<svg width="40" height="40" viewBox="0 0 40 40" fill="none" xmlns="http://www.w3.org/2000/svg">
<circle cx="20" cy="20" r="20" fill="#F3BA2F"/>
<path d="M26.566 23.3962V13.434L29.4717 15.0943V25.0566L24.1132 28.1132L21.2075 26.4528L26.566 23.3962ZM12 18.9434L14.9057 17.283V23.3585L23.6604 28.3396L20.7547 30L12 25.0189V18.9434ZM20.7547 10L26.1132 13.0189V16.3396L20.7547 13.3208L12 18.3396V15.0189L20.7547 10ZM17.4717 15.9245L19.434 14.7925V18.9811C19.6604 18.8302 20.1132 18.4528 20.8302 18.4528C21.7736 18.4528 22.566 18.7547 23.2075 19.434C23.8868 20.0755 24.1887 20.8679 24.1887 21.7736C24.1887 22.6792 23.8491 23.4717 23.2075 24.1132C22.5283 24.7547 21.7736 25.0943 20.8302 25.0943C19.8868 25.0943 19.0943 24.8302 18.4528 24.1509C17.7736 23.5094 17.4717 22.717 17.4717 21.8113V15.9245ZM19.8491 22.7925C20.1132 23.0566 20.4528 23.2075 20.8302 23.2075C21.2075 23.2075 21.5472 23.0566 21.8113 22.7925C22.0755 22.5283 22.2264 22.1887 22.2264 21.8113C22.2264 21.434 22.0755 21.0943 21.8113 20.8302C21.5472 20.566 21.2075 20.4151 20.8302 20.4151C20.4528 20.4151 20.1132 20.566 19.8491 20.8302C19.5849 21.0943 19.434 21.434 19.434 21.8113C19.4717 22.1887 19.5849 22.4906 19.8491 22.7925Z" fill="white"/>
</svg>
