<svg width="9" height="14" viewBox="0 0 9 14" fill="none" xmlns="http://www.w3.org/2000/svg">
<path d="M5.67391 0.594219C6.29348 -0.0204346 7.00239 -0.158245 7.80065 0.180785C8.59891 0.519815 8.9987 1.1267 9 2.00145L9 11.9977C9 12.8711 8.60022 13.478 7.80065 13.8183C7.00109 14.1586 6.29217 14.0208 5.67391 13.4049L0.586957 8.35826C0.391305 8.16416 0.244567 7.95388 0.146741 7.72743C0.0489145 7.50098 5.89373e-07 7.25836 6.11998e-07 6.99955C6.34624e-07 6.74075 0.0489146 6.49813 0.146741 6.27167C0.244568 6.04522 0.391305 5.83495 0.586958 5.64085L5.67391 0.594219Z" fill="black"/>
</svg>
