<svg width="445" height="337" viewBox="0 0 445 337" fill="none" xmlns="http://www.w3.org/2000/svg">
<path d="M164.98 228.376H151.87V251.426H120.11V228.376H72.6299V204.756L122.15 132.356H151.88V204.346H164.99V228.376H164.98ZM120.11 204.346V190.496C120.11 187.886 120.2 184.376 120.39 179.946C120.58 175.526 120.73 173.196 120.84 172.986H119.94C118.09 177.166 116 181.076 113.67 184.716L100.48 204.346H120.11Z" fill="#31E7B1"/>
<path d="M259.37 192.046C259.37 213.116 255.84 228.546 248.78 238.346C241.72 248.146 230.92 253.046 216.37 253.046C201.82 253.046 191.42 247.926 184.2 237.696C176.98 227.466 173.37 212.246 173.37 192.046C173.37 171.846 176.9 155.346 183.96 145.456C191.02 135.576 201.82 130.636 216.37 130.636C230.92 130.636 241.25 135.776 248.5 146.066C255.75 156.356 259.37 171.676 259.37 192.036V192.046ZM205.37 192.046C205.37 205.516 206.21 214.766 207.9 219.816C209.58 224.866 212.41 227.386 216.37 227.386C220.33 227.386 223.22 224.776 224.88 219.566C226.54 214.356 227.36 205.176 227.36 192.036C227.36 178.896 226.52 169.596 224.84 164.306C223.16 159.016 220.33 156.366 216.37 156.366C212.41 156.366 209.58 158.916 207.9 164.026C206.22 169.126 205.37 178.466 205.37 192.046Z" fill="#31E7B1"/>
<path d="M360.44 228.376H347.33V251.426H315.57V228.376H268.09V204.756L317.61 132.356H347.34V204.346H360.45V228.376H360.44ZM315.57 204.346V190.496C315.57 187.886 315.66 184.376 315.86 179.946C316.05 175.526 316.2 173.196 316.31 172.986H315.41C313.56 177.166 311.47 181.076 309.14 184.716L295.95 204.346H315.58H315.57Z" fill="#31E7B1"/>
<path d="M24.8999 158.776H73.0399" stroke="#180F35" stroke-width="2.16" stroke-linecap="round" stroke-linejoin="round"/>
<path d="M84.5898 158.776H94.8698" stroke="#180F35" stroke-width="2.16" stroke-linecap="round" stroke-linejoin="round"/>
<path d="M16.1802 145.226H102.36" stroke="#180F35" stroke-width="2.16" stroke-linecap="round" stroke-linejoin="round"/>
<path d="M9.09 145.226H2" stroke="#180F35" stroke-width="2.16" stroke-linecap="round" stroke-linejoin="round"/>
<path d="M16.1802 132.356H44.7902" stroke="#180F35" stroke-width="2.16" stroke-linecap="round" stroke-linejoin="round"/>
<path d="M52.4502 132.356H112.54" stroke="#180F35" stroke-width="2.16" stroke-linecap="round" stroke-linejoin="round"/>
<path d="M365.16 266.256H416.67" stroke="#180F35" stroke-width="2.16" stroke-linecap="round" stroke-linejoin="round"/>
<path d="M425.05 266.256H432.5" stroke="#180F35" stroke-width="2.16" stroke-linecap="round" stroke-linejoin="round"/>
<path d="M375.45 252.716H442.95" stroke="#180F35" stroke-width="2.16" stroke-linecap="round" stroke-linejoin="round"/>
<path d="M370.3 252.716H365.16" stroke="#180F35" stroke-width="2.16" stroke-linecap="round" stroke-linejoin="round"/>
<path d="M365.16 239.836H396.19" stroke="#180F35" stroke-width="2.16" stroke-linecap="round" stroke-linejoin="round"/>
<path d="M401.75 239.836H425.05" stroke="#180F35" stroke-width="2.16" stroke-linecap="round" stroke-linejoin="round"/>
<path d="M171.14 227.916H158.03V250.966H126.27V227.916H78.79V204.296L128.31 131.896H158.04V203.886H171.15V227.916H171.14ZM126.27 203.886V190.036C126.27 187.426 126.36 183.916 126.55 179.486C126.74 175.066 126.89 172.736 127 172.526H126.1C124.25 176.706 122.16 180.616 119.83 184.256L106.64 203.886H126.27Z" stroke="#180F35" stroke-width="3.27" stroke-miterlimit="10"/>
<path d="M265.53 191.596C265.53 212.666 262 228.096 254.94 237.896C247.88 247.696 237.08 252.596 222.53 252.596C207.98 252.596 197.58 247.476 190.36 237.246C183.14 227.016 179.53 211.796 179.53 191.596C179.53 171.396 183.06 154.896 190.12 145.006C197.18 135.126 207.98 130.186 222.53 130.186C237.08 130.186 247.41 135.326 254.66 145.616C261.91 155.906 265.53 171.226 265.53 191.586V191.596ZM211.53 191.596C211.53 205.066 212.37 214.316 214.06 219.366C215.74 224.416 218.57 226.936 222.53 226.936C226.49 226.936 229.38 224.326 231.04 219.116C232.7 213.906 233.52 204.726 233.52 191.586C233.52 178.446 232.68 169.146 231 163.856C229.32 158.566 226.49 155.916 222.53 155.916C218.57 155.916 215.74 158.466 214.06 163.566C212.38 168.666 211.53 178.006 211.53 191.586V191.596Z" stroke="#180F35" stroke-width="3.27" stroke-miterlimit="10"/>
<path d="M366.6 227.916H353.49V250.966H321.73V227.916H274.25V204.296L323.77 131.896H353.5V203.886H366.61V227.916H366.6ZM321.73 203.886V190.036C321.73 187.426 321.82 183.916 322.02 179.486C322.21 175.066 322.36 172.736 322.47 172.526H321.57C319.72 176.706 317.63 180.616 315.3 184.256L302.11 203.886H321.74H321.73Z" stroke="#180F35" stroke-width="3.27" stroke-miterlimit="10"/>
<path d="M178.736 300H164.144V278.656H178.544V284.512H171.888V286.496H177.936V292.096H171.888V294.144H178.736V300ZM189.602 300H182.05V278.656H191.682C193.048 278.656 194.253 278.805 195.298 279.104C196.365 279.403 197.336 279.989 198.21 280.864C199.554 282.208 200.226 283.957 200.226 286.112C200.226 287.691 199.832 288.96 199.042 289.92C198.338 290.795 197.357 291.36 196.098 291.616V291.808C196.589 292.064 196.962 292.395 197.218 292.8L202.018 300H193.09L190.018 293.76L189.89 293.536C189.826 293.387 189.773 293.237 189.73 293.088L189.602 293.152V300ZM189.602 284.512V288.16H190.498C191.224 288.16 191.768 288 192.13 287.68C192.493 287.36 192.674 286.923 192.674 286.368C192.674 285.813 192.536 285.387 192.258 285.088C191.917 284.704 191.48 284.512 190.946 284.512H189.602ZM212.352 300H204.8V278.656H214.432C215.798 278.656 217.003 278.805 218.048 279.104C219.115 279.403 220.086 279.989 220.96 280.864C222.304 282.208 222.976 283.957 222.976 286.112C222.976 287.691 222.582 288.96 221.792 289.92C221.088 290.795 220.107 291.36 218.848 291.616V291.808C219.339 292.064 219.712 292.395 219.968 292.8L224.768 300H215.84L212.768 293.76L212.64 293.536C212.576 293.387 212.523 293.237 212.48 293.088L212.352 293.152V300ZM212.352 284.512V288.16H213.248C213.974 288.16 214.518 288 214.88 287.68C215.243 287.36 215.424 286.923 215.424 286.368C215.424 285.813 215.286 285.387 215.008 285.088C214.667 284.704 214.23 284.512 213.696 284.512H212.352ZM249.458 289.312C249.458 292.448 248.466 295.029 246.482 297.056C244.242 299.339 241.287 300.48 237.618 300.48C233.948 300.48 230.994 299.339 228.754 297.056C226.77 295.029 225.778 292.448 225.778 289.312C225.778 286.197 226.77 283.627 228.754 281.6C230.994 279.317 233.948 278.176 237.618 278.176C241.287 278.176 244.242 279.317 246.482 281.6C248.466 283.627 249.458 286.197 249.458 289.312ZM237.618 285.056C236.444 285.056 235.516 285.419 234.834 286.144C234.023 286.997 233.618 288.064 233.618 289.344C233.618 290.645 234.023 291.701 234.834 292.512C235.559 293.237 236.487 293.6 237.618 293.6C238.748 293.6 239.676 293.237 240.402 292.512C241.212 291.701 241.618 290.645 241.618 289.344C241.618 287.979 241.212 286.912 240.402 286.144C239.676 285.419 238.748 285.056 237.618 285.056ZM260.352 300H252.8V278.656H262.432C263.798 278.656 265.003 278.805 266.048 279.104C267.115 279.403 268.086 279.989 268.96 280.864C270.304 282.208 270.976 283.957 270.976 286.112C270.976 287.691 270.582 288.96 269.792 289.92C269.088 290.795 268.107 291.36 266.848 291.616V291.808C267.339 292.064 267.712 292.395 267.968 292.8L272.768 300H263.84L260.768 293.76L260.64 293.536C260.576 293.387 260.523 293.237 260.48 293.088L260.352 293.152V300ZM260.352 284.512V288.16H261.248C261.974 288.16 262.518 288 262.88 287.68C263.243 287.36 263.424 286.923 263.424 286.368C263.424 285.813 263.286 285.387 263.008 285.088C262.667 284.704 262.23 284.512 261.696 284.512H260.352Z" fill="#180F35"/>
<path d="M387.64 155.836V144.796" stroke="#180F35" stroke-width="2.16" stroke-linecap="round" stroke-linejoin="round"/>
<path d="M379.93 159.026L372.13 151.226" stroke="#180F35" stroke-width="2.16" stroke-linecap="round" stroke-linejoin="round"/>
<path d="M376.74 166.736H365.7" stroke="#180F35" stroke-width="2.16" stroke-linecap="round" stroke-linejoin="round"/>
<path d="M379.93 174.436L372.13 182.246" stroke="#180F35" stroke-width="2.16" stroke-linecap="round" stroke-linejoin="round"/>
<path d="M387.64 177.636V188.666" stroke="#180F35" stroke-width="2.16" stroke-linecap="round" stroke-linejoin="round"/>
<path d="M395.34 174.436L403.15 182.246" stroke="#180F35" stroke-width="2.16" stroke-linecap="round" stroke-linejoin="round"/>
<path d="M398.54 166.736H409.58" stroke="#180F35" stroke-width="2.16" stroke-linecap="round" stroke-linejoin="round"/>
<path d="M395.34 159.026L403.15 151.226" stroke="#180F35" stroke-width="2.16" stroke-linecap="round" stroke-linejoin="round"/>
<path d="M41.4102 210.806V202.826" stroke="#180F35" stroke-width="2.16" stroke-linecap="round" stroke-linejoin="round"/>
<path d="M35.8402 213.106L30.2002 207.466" stroke="#180F35" stroke-width="2.16" stroke-linecap="round" stroke-linejoin="round"/>
<path d="M33.5298 218.676H25.5498" stroke="#180F35" stroke-width="2.16" stroke-linecap="round" stroke-linejoin="round"/>
<path d="M35.8402 224.246L30.2002 229.896" stroke="#180F35" stroke-width="2.16" stroke-linecap="round" stroke-linejoin="round"/>
<path d="M41.4102 226.556V234.536" stroke="#180F35" stroke-width="2.16" stroke-linecap="round" stroke-linejoin="round"/>
<path d="M46.98 224.246L52.62 229.896" stroke="#180F35" stroke-width="2.16" stroke-linecap="round" stroke-linejoin="round"/>
<path d="M49.29 218.676H57.27" stroke="#180F35" stroke-width="2.16" stroke-linecap="round" stroke-linejoin="round"/>
<path d="M46.98 213.106L52.62 207.466" stroke="#180F35" stroke-width="2.16" stroke-linecap="round" stroke-linejoin="round"/>
<path d="M257.33 45.9864V38.0064" stroke="#180F35" stroke-width="2.16" stroke-linecap="round" stroke-linejoin="round"/>
<path d="M251.76 48.2964L246.12 42.6564" stroke="#180F35" stroke-width="2.16" stroke-linecap="round" stroke-linejoin="round"/>
<path d="M249.46 53.8664H241.48" stroke="#180F35" stroke-width="2.16" stroke-linecap="round" stroke-linejoin="round"/>
<path d="M251.76 59.4364L246.12 65.0764" stroke="#180F35" stroke-width="2.16" stroke-linecap="round" stroke-linejoin="round"/>
<path d="M257.33 61.7464V69.7264" stroke="#180F35" stroke-width="2.16" stroke-linecap="round" stroke-linejoin="round"/>
<path d="M262.9 59.4364L268.54 65.0764" stroke="#180F35" stroke-width="2.16" stroke-linecap="round" stroke-linejoin="round"/>
<path d="M265.21 53.8664H273.19" stroke="#180F35" stroke-width="2.16" stroke-linecap="round" stroke-linejoin="round"/>
<path d="M262.9 48.2964L268.54 42.6564" stroke="#180F35" stroke-width="2.16" stroke-linecap="round" stroke-linejoin="round"/>
<path d="M354.78 267.626H81.02V310.726H354.78V267.626Z" stroke="#180F35" stroke-width="2.42" stroke-linecap="round" stroke-linejoin="round"/>
<path d="M130.768 324.642H128.5V333H127.464V324.642H125.196V323.662H130.768V324.642ZM130.901 333V322.794H131.909V327.862C132.32 327.321 132.875 327.05 133.575 327.05C134.322 327.05 134.877 327.316 135.241 327.848C135.465 328.175 135.577 328.693 135.577 329.402V333H134.569V329.43C134.569 328.954 134.481 328.599 134.303 328.366C134.089 328.086 133.771 327.946 133.351 327.946C132.922 327.946 132.581 328.095 132.329 328.394C132.049 328.721 131.909 329.243 131.909 329.962V333H130.901ZM141.653 331.054L142.493 331.516C142.297 331.889 142.059 332.202 141.779 332.454C141.247 332.93 140.603 333.168 139.847 333.168C139.063 333.168 138.386 332.916 137.817 332.412C137.257 331.899 136.977 331.138 136.977 330.13C136.977 329.243 137.229 328.511 137.733 327.932C138.246 327.344 138.932 327.05 139.791 327.05C140.761 327.05 141.494 327.405 141.989 328.114C142.381 328.674 142.563 329.402 142.535 330.298H138.013C138.022 330.886 138.204 331.362 138.559 331.726C138.913 332.09 139.347 332.272 139.861 332.272C140.318 332.272 140.715 332.132 141.051 331.852C141.312 331.628 141.513 331.362 141.653 331.054ZM138.083 329.458H141.499C141.415 329.001 141.214 328.637 140.897 328.366C140.589 328.086 140.22 327.946 139.791 327.946C139.371 327.946 138.997 328.091 138.671 328.38C138.353 328.66 138.157 329.019 138.083 329.458ZM147.348 333V327.19H148.356V327.82C148.683 327.307 149.122 327.05 149.672 327.05C149.952 327.05 150.251 327.129 150.568 327.288L150.092 328.198C149.906 328.067 149.71 328.002 149.504 328.002C149.15 328.002 148.879 328.123 148.692 328.366C148.468 328.665 148.356 329.187 148.356 329.934V333H147.348ZM155.461 331.054L156.301 331.516C156.105 331.889 155.867 332.202 155.587 332.454C155.055 332.93 154.411 333.168 153.655 333.168C152.871 333.168 152.195 332.916 151.625 332.412C151.065 331.899 150.785 331.138 150.785 330.13C150.785 329.243 151.037 328.511 151.541 327.932C152.055 327.344 152.741 327.05 153.599 327.05C154.57 327.05 155.303 327.405 155.797 328.114C156.189 328.674 156.371 329.402 156.343 330.298H151.821C151.831 330.886 152.013 331.362 152.367 331.726C152.722 332.09 153.156 332.272 153.669 332.272C154.127 332.272 154.523 332.132 154.859 331.852C155.121 331.628 155.321 331.362 155.461 331.054ZM151.891 329.458H155.307C155.223 329.001 155.023 328.637 154.705 328.366C154.397 328.086 154.029 327.946 153.599 327.946C153.179 327.946 152.806 328.091 152.479 328.38C152.162 328.66 151.966 329.019 151.891 329.458ZM162.342 328.016V327.19H163.35V336.22H162.342V332.188C161.838 332.841 161.175 333.168 160.354 333.168C159.57 333.168 158.902 332.897 158.352 332.356C157.801 331.815 157.526 331.059 157.526 330.088C157.526 329.136 157.796 328.394 158.338 327.862C158.888 327.321 159.56 327.05 160.354 327.05C161.194 327.05 161.856 327.372 162.342 328.016ZM160.466 327.946C159.934 327.946 159.481 328.137 159.108 328.52C158.744 328.893 158.562 329.416 158.562 330.088C158.562 330.732 158.73 331.259 159.066 331.67C159.411 332.071 159.878 332.272 160.466 332.272C161.054 332.272 161.52 332.062 161.866 331.642C162.22 331.222 162.398 330.709 162.398 330.102C162.398 329.411 162.202 328.879 161.81 328.506C161.418 328.133 160.97 327.946 160.466 327.946ZM166.267 327.19V330.578C166.267 331.166 166.36 331.581 166.547 331.824C166.78 332.123 167.121 332.272 167.569 332.272C168.017 332.272 168.357 332.123 168.591 331.824C168.777 331.581 168.871 331.166 168.871 330.578V327.19H169.879V330.69C169.879 331.474 169.701 332.057 169.347 332.44C168.889 332.925 168.297 333.168 167.569 333.168C166.841 333.168 166.248 332.925 165.791 332.44C165.436 332.057 165.259 331.474 165.259 330.69V327.19H166.267ZM176.092 331.054L176.932 331.516C176.736 331.889 176.498 332.202 176.218 332.454C175.686 332.93 175.042 333.168 174.286 333.168C173.502 333.168 172.825 332.916 172.256 332.412C171.696 331.899 171.416 331.138 171.416 330.13C171.416 329.243 171.668 328.511 172.172 327.932C172.685 327.344 173.371 327.05 174.23 327.05C175.201 327.05 175.933 327.405 176.428 328.114C176.82 328.674 177.002 329.402 176.974 330.298H172.452C172.461 330.886 172.643 331.362 172.998 331.726C173.353 332.09 173.787 332.272 174.3 332.272C174.757 332.272 175.154 332.132 175.49 331.852C175.751 331.628 175.952 331.362 176.092 331.054ZM172.522 329.458H175.938C175.854 329.001 175.653 328.637 175.336 328.366C175.028 328.086 174.659 327.946 174.23 327.946C173.81 327.946 173.437 328.091 173.11 328.38C172.793 328.66 172.597 329.019 172.522 329.458ZM181.74 328.1L180.914 328.534C180.756 328.142 180.485 327.946 180.102 327.946C179.906 327.946 179.738 328.002 179.598 328.114C179.468 328.226 179.402 328.389 179.402 328.604C179.402 328.8 179.463 328.949 179.584 329.052C179.715 329.145 179.967 329.271 180.34 329.43C181.078 329.738 181.563 330.037 181.796 330.326C182.002 330.578 182.104 330.891 182.104 331.264C182.104 331.852 181.913 332.319 181.53 332.664C181.157 333 180.681 333.168 180.102 333.168C179.99 333.168 179.869 333.154 179.738 333.126C179.608 333.107 179.426 333.061 179.192 332.986C178.968 332.902 178.754 332.748 178.548 332.524C178.343 332.3 178.184 332.02 178.072 331.684L178.94 331.32C179.174 331.955 179.566 332.272 180.116 332.272C180.424 332.272 180.658 332.179 180.816 331.992C180.984 331.805 181.068 331.591 181.068 331.348C181.068 331.217 181.045 331.105 180.998 331.012C180.961 330.909 180.891 330.821 180.788 330.746C180.695 330.671 180.602 330.611 180.508 330.564C180.424 330.517 180.298 330.457 180.13 330.382C179.384 330.055 178.912 329.771 178.716 329.528C178.539 329.304 178.45 329.019 178.45 328.674C178.45 328.17 178.604 327.773 178.912 327.484C179.23 327.195 179.64 327.05 180.144 327.05C180.882 327.05 181.414 327.4 181.74 328.1ZM185.486 328.114H184.478V333H183.47V328.114H182.854V327.19H183.47V325.09H184.478V327.19H185.486V328.114ZM190.748 331.054L191.588 331.516C191.392 331.889 191.154 332.202 190.874 332.454C190.342 332.93 189.698 333.168 188.942 333.168C188.158 333.168 187.482 332.916 186.912 332.412C186.352 331.899 186.072 331.138 186.072 330.13C186.072 329.243 186.324 328.511 186.828 327.932C187.342 327.344 188.028 327.05 188.886 327.05C189.857 327.05 190.59 327.405 191.084 328.114C191.476 328.674 191.658 329.402 191.63 330.298H187.108C187.118 330.886 187.3 331.362 187.654 331.726C188.009 332.09 188.443 332.272 188.956 332.272C189.414 332.272 189.81 332.132 190.146 331.852C190.408 331.628 190.608 331.362 190.748 331.054ZM187.178 329.458H190.594C190.51 329.001 190.31 328.637 189.992 328.366C189.684 328.086 189.316 327.946 188.886 327.946C188.466 327.946 188.093 328.091 187.766 328.38C187.449 328.66 187.253 329.019 187.178 329.458ZM197.629 328.016V322.794H198.637V333H197.629V332.188C197.125 332.841 196.462 333.168 195.641 333.168C194.857 333.168 194.189 332.897 193.639 332.356C193.088 331.815 192.813 331.059 192.813 330.088C192.813 329.136 193.083 328.394 193.625 327.862C194.175 327.321 194.847 327.05 195.641 327.05C196.481 327.05 197.143 327.372 197.629 328.016ZM195.753 327.946C195.221 327.946 194.768 328.137 194.395 328.52C194.031 328.893 193.849 329.416 193.849 330.088C193.849 330.732 194.017 331.259 194.353 331.67C194.698 332.071 195.165 332.272 195.753 332.272C196.341 332.272 196.807 332.062 197.153 331.642C197.507 331.222 197.685 330.709 197.685 330.102C197.685 329.411 197.489 328.879 197.097 328.506C196.705 328.133 196.257 327.946 195.753 327.946ZM204.821 332.188V336.22H203.813V327.19H204.821V328.002C205.335 327.367 205.997 327.05 206.809 327.05C207.677 327.05 208.363 327.358 208.867 327.974C209.381 328.581 209.637 329.299 209.637 330.13C209.637 330.97 209.385 331.689 208.881 332.286C208.377 332.874 207.701 333.168 206.851 333.168C206.002 333.168 205.325 332.841 204.821 332.188ZM206.711 332.272C207.281 332.272 207.738 332.067 208.083 331.656C208.429 331.236 208.601 330.727 208.601 330.13C208.601 329.458 208.41 328.926 208.027 328.534C207.645 328.142 207.201 327.946 206.697 327.946C206.193 327.946 205.745 328.142 205.353 328.534C204.961 328.926 204.765 329.453 204.765 330.116C204.765 330.723 204.943 331.236 205.297 331.656C205.661 332.067 206.133 332.272 206.711 332.272ZM215.634 328.016V327.19H216.642V333H215.634V332.188C215.13 332.841 214.468 333.168 213.646 333.168C212.862 333.168 212.195 332.897 211.644 332.356C211.094 331.815 210.818 331.059 210.818 330.088C210.818 329.136 211.089 328.394 211.63 327.862C212.181 327.321 212.853 327.05 213.646 327.05C214.486 327.05 215.149 327.372 215.634 328.016ZM213.758 327.946C213.226 327.946 212.774 328.137 212.4 328.52C212.036 328.893 211.854 329.416 211.854 330.088C211.854 330.732 212.022 331.259 212.358 331.67C212.704 332.071 213.17 332.272 213.758 332.272C214.346 332.272 214.813 332.062 215.158 331.642C215.513 331.222 215.69 330.709 215.69 330.102C215.69 329.411 215.494 328.879 215.102 328.506C214.71 328.133 214.262 327.946 213.758 327.946ZM223.004 328.016V327.19H224.012V332.86C224.012 333.877 223.825 334.638 223.452 335.142C222.92 335.861 222.145 336.22 221.128 336.22C220.269 336.22 219.578 335.959 219.056 335.436C218.552 334.932 218.3 334.307 218.3 333.56H219.294C219.294 334.027 219.443 334.428 219.742 334.764C220.078 335.137 220.544 335.324 221.142 335.324C221.842 335.324 222.355 335.053 222.682 334.512C222.896 334.167 223.004 333.672 223.004 333.028V332.188C222.5 332.841 221.837 333.168 221.016 333.168C220.213 333.168 219.55 332.907 219.028 332.384C218.468 331.824 218.188 331.059 218.188 330.088C218.188 329.145 218.468 328.394 219.028 327.834C219.569 327.311 220.232 327.05 221.016 327.05C221.846 327.05 222.509 327.372 223.004 328.016ZM221.128 327.946C220.614 327.946 220.176 328.128 219.812 328.492C219.42 328.893 219.224 329.425 219.224 330.088C219.224 330.825 219.443 331.395 219.882 331.796C220.227 332.113 220.642 332.272 221.128 332.272C221.65 332.272 222.075 332.109 222.402 331.782C222.84 331.362 223.06 330.802 223.06 330.102C223.06 329.402 222.854 328.856 222.444 328.464C222.098 328.119 221.66 327.946 221.128 327.946ZM230.233 331.054L231.073 331.516C230.877 331.889 230.639 332.202 230.359 332.454C229.827 332.93 229.183 333.168 228.427 333.168C227.643 333.168 226.966 332.916 226.397 332.412C225.837 331.899 225.557 331.138 225.557 330.13C225.557 329.243 225.809 328.511 226.313 327.932C226.826 327.344 227.512 327.05 228.371 327.05C229.341 327.05 230.074 327.405 230.569 328.114C230.961 328.674 231.143 329.402 231.115 330.298H226.593C226.602 330.886 226.784 331.362 227.139 331.726C227.493 332.09 227.927 332.272 228.441 332.272C228.898 332.272 229.295 332.132 229.631 331.852C229.892 331.628 230.093 331.362 230.233 331.054ZM226.663 329.458H230.079C229.995 329.001 229.794 328.637 229.477 328.366C229.169 328.086 228.8 327.946 228.371 327.946C227.951 327.946 227.577 328.091 227.251 328.38C226.933 328.66 226.737 329.019 226.663 329.458ZM240.381 328.016V322.794H241.389V333H240.381V332.188C239.877 332.841 239.214 333.168 238.393 333.168C237.609 333.168 236.941 332.897 236.391 332.356C235.84 331.815 235.565 331.059 235.565 330.088C235.565 329.136 235.835 328.394 236.377 327.862C236.927 327.321 237.599 327.05 238.393 327.05C239.233 327.05 239.895 327.372 240.381 328.016ZM238.505 327.946C237.973 327.946 237.52 328.137 237.147 328.52C236.783 328.893 236.601 329.416 236.601 330.088C236.601 330.732 236.769 331.259 237.105 331.67C237.45 332.071 237.917 332.272 238.505 332.272C239.093 332.272 239.559 332.062 239.905 331.642C240.259 331.222 240.437 330.709 240.437 330.102C240.437 329.411 240.241 328.879 239.849 328.506C239.457 328.133 239.009 327.946 238.505 327.946ZM248.212 332.3C247.633 332.879 246.9 333.168 246.014 333.168C245.127 333.168 244.39 332.879 243.802 332.3C243.223 331.721 242.934 330.993 242.934 330.116C242.934 329.229 243.223 328.497 243.802 327.918C244.39 327.339 245.127 327.05 246.014 327.05C246.9 327.05 247.633 327.339 248.212 327.918C248.8 328.497 249.094 329.229 249.094 330.116C249.094 330.993 248.8 331.721 248.212 332.3ZM247.456 328.52C247.064 328.137 246.583 327.946 246.014 327.946C245.444 327.946 244.959 328.142 244.558 328.534C244.166 328.917 243.97 329.444 243.97 330.116C243.97 330.788 244.17 331.315 244.572 331.698C244.973 332.081 245.454 332.272 246.014 332.272C246.574 332.272 247.054 332.081 247.456 331.698C247.857 331.315 248.058 330.788 248.058 330.116C248.058 329.435 247.857 328.903 247.456 328.52ZM254.952 331.054L255.792 331.516C255.596 331.889 255.358 332.202 255.078 332.454C254.546 332.93 253.902 333.168 253.146 333.168C252.362 333.168 251.685 332.916 251.116 332.412C250.556 331.899 250.276 331.138 250.276 330.13C250.276 329.243 250.528 328.511 251.032 327.932C251.545 327.344 252.231 327.05 253.09 327.05C254.06 327.05 254.793 327.405 255.288 328.114C255.68 328.674 255.862 329.402 255.834 330.298H251.312C251.321 330.886 251.503 331.362 251.858 331.726C252.212 332.09 252.646 332.272 253.16 332.272C253.617 332.272 254.014 332.132 254.35 331.852C254.611 331.628 254.812 331.362 254.952 331.054ZM251.382 329.458H254.798C254.714 329.001 254.513 328.637 254.196 328.366C253.888 328.086 253.519 327.946 253.09 327.946C252.67 327.946 252.296 328.091 251.97 328.38C251.652 328.66 251.456 329.019 251.382 329.458ZM260.6 328.1L259.774 328.534C259.615 328.142 259.344 327.946 258.962 327.946C258.766 327.946 258.598 328.002 258.458 328.114C258.327 328.226 258.262 328.389 258.262 328.604C258.262 328.8 258.322 328.949 258.444 329.052C258.574 329.145 258.826 329.271 259.2 329.43C259.937 329.738 260.422 330.037 260.656 330.326C260.861 330.578 260.964 330.891 260.964 331.264C260.964 331.852 260.772 332.319 260.39 332.664C260.016 333 259.54 333.168 258.962 333.168C258.85 333.168 258.728 333.154 258.598 333.126C258.467 333.107 258.285 333.061 258.052 332.986C257.828 332.902 257.613 332.748 257.408 332.524C257.202 332.3 257.044 332.02 256.932 331.684L257.8 331.32C258.033 331.955 258.425 332.272 258.976 332.272C259.284 332.272 259.517 332.179 259.676 331.992C259.844 331.805 259.928 331.591 259.928 331.348C259.928 331.217 259.904 331.105 259.858 331.012C259.82 330.909 259.75 330.821 259.648 330.746C259.554 330.671 259.461 330.611 259.368 330.564C259.284 330.517 259.158 330.457 258.99 330.382C258.243 330.055 257.772 329.771 257.576 329.528C257.398 329.304 257.31 329.019 257.31 328.674C257.31 328.17 257.464 327.773 257.772 327.484C258.089 327.195 258.5 327.05 259.004 327.05C259.741 327.05 260.273 327.4 260.6 328.1ZM265.569 333V327.19H266.577V327.862C266.988 327.321 267.543 327.05 268.243 327.05C268.99 327.05 269.545 327.316 269.909 327.848C270.133 328.175 270.245 328.693 270.245 329.402V333H269.237V329.43C269.237 328.954 269.149 328.599 268.971 328.366C268.757 328.086 268.439 327.946 268.019 327.946C267.59 327.946 267.249 328.095 266.997 328.394C266.717 328.721 266.577 329.243 266.577 329.962V333H265.569ZM277.059 332.3C276.481 332.879 275.748 333.168 274.861 333.168C273.975 333.168 273.237 332.879 272.649 332.3C272.071 331.721 271.781 330.993 271.781 330.116C271.781 329.229 272.071 328.497 272.649 327.918C273.237 327.339 273.975 327.05 274.861 327.05C275.748 327.05 276.481 327.339 277.059 327.918C277.647 328.497 277.941 329.229 277.941 330.116C277.941 330.993 277.647 331.721 277.059 332.3ZM276.303 328.52C275.911 328.137 275.431 327.946 274.861 327.946C274.292 327.946 273.807 328.142 273.405 328.534C273.013 328.917 272.817 329.444 272.817 330.116C272.817 330.788 273.018 331.315 273.419 331.698C273.821 332.081 274.301 332.272 274.861 332.272C275.421 332.272 275.902 332.081 276.303 331.698C276.705 331.315 276.905 330.788 276.905 330.116C276.905 329.435 276.705 328.903 276.303 328.52ZM281.531 328.114H280.523V333H279.515V328.114H278.899V327.19H279.515V325.09H280.523V327.19H281.531V328.114ZM290.061 331.054L290.901 331.516C290.705 331.889 290.467 332.202 290.187 332.454C289.655 332.93 289.011 333.168 288.255 333.168C287.471 333.168 286.794 332.916 286.225 332.412C285.665 331.899 285.385 331.138 285.385 330.13C285.385 329.243 285.637 328.511 286.141 327.932C286.654 327.344 287.34 327.05 288.199 327.05C289.17 327.05 289.902 327.405 290.397 328.114C290.789 328.674 290.971 329.402 290.943 330.298H286.421C286.43 330.886 286.612 331.362 286.967 331.726C287.322 332.09 287.756 332.272 288.269 332.272C288.726 332.272 289.123 332.132 289.459 331.852C289.72 331.628 289.921 331.362 290.061 331.054ZM286.491 329.458H289.907C289.823 329.001 289.622 328.637 289.305 328.366C288.997 328.086 288.628 327.946 288.199 327.946C287.779 327.946 287.406 328.091 287.079 328.38C286.762 328.66 286.566 329.019 286.491 329.458ZM291.649 333L294.127 329.892L292.013 327.19H293.245L294.743 329.164L296.269 327.19H297.501L295.373 329.906L297.781 333H296.549L294.715 330.634L292.881 333H291.649ZM298.847 327.19H299.855V333H298.847V327.19ZM298.847 325.496C298.707 325.356 298.637 325.188 298.637 324.992C298.637 324.796 298.707 324.628 298.847 324.488C298.987 324.348 299.155 324.278 299.351 324.278C299.547 324.278 299.715 324.348 299.855 324.488C299.995 324.628 300.065 324.796 300.065 324.992C300.065 325.188 299.995 325.356 299.855 325.496C299.715 325.636 299.547 325.706 299.351 325.706C299.155 325.706 298.987 325.636 298.847 325.496ZM304.979 328.1L304.153 328.534C303.994 328.142 303.723 327.946 303.341 327.946C303.145 327.946 302.977 328.002 302.837 328.114C302.706 328.226 302.641 328.389 302.641 328.604C302.641 328.8 302.701 328.949 302.823 329.052C302.953 329.145 303.205 329.271 303.579 329.43C304.316 329.738 304.801 330.037 305.035 330.326C305.24 330.578 305.343 330.891 305.343 331.264C305.343 331.852 305.151 332.319 304.769 332.664C304.395 333 303.919 333.168 303.341 333.168C303.229 333.168 303.107 333.154 302.977 333.126C302.846 333.107 302.664 333.061 302.431 332.986C302.207 332.902 301.992 332.748 301.787 332.524C301.581 332.3 301.423 332.02 301.311 331.684L302.179 331.32C302.412 331.955 302.804 332.272 303.355 332.272C303.663 332.272 303.896 332.179 304.055 331.992C304.223 331.805 304.307 331.591 304.307 331.348C304.307 331.217 304.283 331.105 304.237 331.012C304.199 330.909 304.129 330.821 304.027 330.746C303.933 330.671 303.84 330.611 303.747 330.564C303.663 330.517 303.537 330.457 303.369 330.382C302.622 330.055 302.151 329.771 301.955 329.528C301.777 329.304 301.689 329.019 301.689 328.674C301.689 328.17 301.843 327.773 302.151 327.484C302.468 327.195 302.879 327.05 303.383 327.05C304.12 327.05 304.652 327.4 304.979 328.1ZM308.725 328.114H307.717V333H306.709V328.114H306.093V327.19H306.709V325.09H307.717V327.19H308.725V328.114ZM309.829 332.93C309.689 332.79 309.619 332.627 309.619 332.44C309.619 332.253 309.689 332.09 309.829 331.95C309.969 331.81 310.132 331.74 310.319 331.74C310.505 331.74 310.669 331.81 310.809 331.95C310.949 332.09 311.019 332.253 311.019 332.44C311.019 332.627 310.949 332.79 310.809 332.93C310.669 333.07 310.505 333.14 310.319 333.14C310.132 333.14 309.969 333.07 309.829 332.93Z" fill="#180F35"/>
<path d="M102.36 112.936V78.4064H281.85V155.126" stroke="#180F35" stroke-width="2.16" stroke-linecap="round" stroke-linejoin="round"/>
<path d="M218.59 53.8664V97.0964H337.61V116.766" stroke="#180F35" stroke-width="2.16" stroke-linecap="round" stroke-linejoin="round"/>
<path d="M106.64 117.216C106.64 119.586 104.72 121.496 102.36 121.496C100 121.496 98.0801 119.576 98.0801 117.216C98.0801 114.856 100 112.936 102.36 112.936C104.72 112.936 106.64 114.856 106.64 117.216Z" stroke="#180F35" stroke-width="2.16" stroke-linecap="round" stroke-linejoin="round"/>
<path d="M218.59 53.8664C220.954 53.8664 222.87 51.9502 222.87 49.5864C222.87 47.2227 220.954 45.3064 218.59 45.3064C216.226 45.3064 214.31 47.2227 214.31 49.5864C214.31 51.9502 216.226 53.8664 218.59 53.8664Z" stroke="#180F35" stroke-width="2.16" stroke-linecap="round" stroke-linejoin="round"/>
<path d="M341.9 121.496C341.9 123.866 339.98 125.776 337.62 125.776C335.26 125.776 333.34 123.856 333.34 121.496C333.34 119.136 335.26 117.216 337.62 117.216C339.98 117.216 341.9 119.136 341.9 121.496Z" stroke="#180F35" stroke-width="2.16" stroke-linecap="round" stroke-linejoin="round"/>
<path d="M286.13 160.116C286.13 162.486 284.21 164.396 281.85 164.396C279.49 164.396 277.57 162.476 277.57 160.116C277.57 157.756 279.49 155.836 281.85 155.836C284.21 155.836 286.13 157.756 286.13 160.116Z" stroke="#180F35" stroke-width="2.16" stroke-linecap="round" stroke-linejoin="round"/>
<path d="M74.4501 245.896L64.3101 256.036" stroke="#180F35" stroke-width="2.16" stroke-linecap="round" stroke-linejoin="round"/>
<path d="M64.3101 245.896L74.4501 256.036" stroke="#180F35" stroke-width="2.16" stroke-linecap="round" stroke-linejoin="round"/>
<path d="M79.5099 98.7365L69.3799 108.866" stroke="#180F35" stroke-width="2.16" stroke-linecap="round" stroke-linejoin="round"/>
<path d="M69.3799 98.7365L79.5099 108.866" stroke="#180F35" stroke-width="2.16" stroke-linecap="round" stroke-linejoin="round"/>
<path d="M408.22 213.616L398.08 223.746" stroke="#180F35" stroke-width="2.16" stroke-linecap="round" stroke-linejoin="round"/>
<path d="M398.08 213.616L408.22 223.746" stroke="#180F35" stroke-width="2.16" stroke-linecap="round" stroke-linejoin="round"/>
<path d="M120.62 40.8965C117.39 40.8965 114.43 42.0564 112.13 43.9864C109.78 36.9264 103.14 31.8264 95.2901 31.8264C86.5001 31.8264 79.2301 38.2164 77.8001 46.5964C76.8701 46.3264 75.9001 46.1764 74.8901 46.1764C69.0501 46.1764 64.3101 50.9164 64.3101 56.7564C64.3101 62.1264 68.3201 66.5564 73.5101 67.2364V67.3364H120.62C127.92 67.3364 133.84 61.4164 133.84 54.1164C133.84 46.8164 127.92 40.8965 120.62 40.8965Z" stroke="#180F35" stroke-width="2.26" stroke-linecap="round" stroke-linejoin="round"/>
<path d="M365.75 108.156C368.1 108.156 370.25 108.996 371.92 110.396C373.62 105.266 378.45 101.566 384.16 101.566C390.54 101.566 395.83 106.206 396.86 112.296C397.53 112.106 398.24 111.996 398.98 111.996C403.22 111.996 406.67 115.436 406.67 119.686C406.67 123.586 403.76 126.806 399.98 127.296V127.366H365.76C360.46 127.366 356.15 123.066 356.15 117.756C356.15 112.446 360.45 108.146 365.76 108.146L365.75 108.156Z" stroke="#180F35" stroke-width="2.16" stroke-linecap="round" stroke-linejoin="round"/>
<path d="M412.94 289.846C410.97 289.846 409.17 290.556 407.77 291.726C406.34 287.426 402.29 284.316 397.51 284.316C392.16 284.316 387.72 288.206 386.86 293.316C386.3 293.156 385.7 293.066 385.09 293.066C381.53 293.066 378.64 295.956 378.64 299.516C378.64 302.786 381.08 305.486 384.25 305.896V305.956H412.95C417.4 305.956 421.01 302.346 421.01 297.896C421.01 293.446 417.4 289.836 412.95 289.836L412.94 289.846Z" stroke="#180F35" stroke-width="2.16" stroke-linecap="round" stroke-linejoin="round"/>
<path d="M23.3998 272.846C25.7498 272.846 27.8998 273.686 29.5698 275.086C31.2698 269.956 36.0998 266.256 41.8098 266.256C48.1898 266.256 53.4798 270.896 54.5098 276.986C55.1798 276.796 55.8898 276.686 56.6298 276.686C60.8698 276.686 64.3198 280.126 64.3198 284.376C64.3198 288.276 61.4098 291.496 57.6298 291.986V292.056H23.4098C18.1098 292.056 13.7998 287.756 13.7998 282.446C13.7998 277.136 18.0998 272.836 23.4098 272.836L23.3998 272.846Z" stroke="#180F35" stroke-width="2.16" stroke-linecap="round" stroke-linejoin="round"/>
<path d="M133.84 34.5564C133.84 34.5564 194.28 -14.7236 276.4 7.97644C362.66 31.8264 379.93 93.3364 379.93 93.3364" stroke="#180F35" stroke-width="2.16" stroke-linecap="round" stroke-linejoin="round"/>
<path d="M42.5798 177.776C19.1498 181.406 7.36984 231.136 33.7298 250.876" stroke="#180F35" stroke-width="2.02" stroke-linecap="round" stroke-linejoin="round"/>
<path d="M337.61 321.266C337.61 321.266 377.75 338.816 395.34 314.336" stroke="#180F35" stroke-width="2.16" stroke-linecap="round" stroke-linejoin="round"/>
<path d="M146.66 121.496V96.1564" stroke="#180F35" stroke-width="2.16" stroke-linecap="round" stroke-linejoin="round"/>
<path d="M140.54 121.496V108.866" stroke="#180F35" stroke-width="2.16" stroke-linecap="round" stroke-linejoin="round"/>
<path d="M239.82 127.366V108.826" stroke="#180F35" stroke-width="2.16" stroke-linecap="round" stroke-linejoin="round"/>
<path d="M232.87 125.786V118.096" stroke="#180F35" stroke-width="2.16" stroke-linecap="round" stroke-linejoin="round"/>
<path d="M226.7 125.786V112.936" stroke="#180F35" stroke-width="2.16" stroke-linecap="round" stroke-linejoin="round"/>
<path d="M152.54 121.496V108.826" stroke="#180F35" stroke-width="2.16" stroke-linecap="round" stroke-linejoin="round"/>
<path d="M320.55 125.026V119.356" stroke="#180F35" stroke-width="2.16" stroke-linecap="round" stroke-linejoin="round"/>
<path d="M314.43 125.026V111.216" stroke="#180F35" stroke-width="2.16" stroke-linecap="round" stroke-linejoin="round"/>
<path d="M326.43 125.026V115.166" stroke="#180F35" stroke-width="2.16" stroke-linecap="round" stroke-linejoin="round"/>
</svg>
