<svg width="488" height="480" viewBox="0 0 488 480" fill="none" xmlns="http://www.w3.org/2000/svg">
<path d="M292.562 273.594L399.389 368.684C409.784 368.882 415.131 364.132 414.438 358.492L410.774 321.881L404.438 264.589L395.032 174.843C389.884 179.988 292.562 273.594 292.562 273.594Z" fill="#31E7B1"/>
<path d="M218.009 283.983L137.319 397.477C127.221 399.951 120.984 396.488 120.39 390.947L115.835 354.434L109.4 297.143L99.4004 209.969C105.539 213.729 218.009 283.983 218.009 283.983Z" fill="#31E7B1"/>
<path d="M120.489 400.446C118.113 400.446 115.736 399.655 113.855 398.072C111.578 396.291 110.192 393.718 109.895 390.947L88.8069 204.231C88.7079 203.637 89.1039 203.142 89.698 203.043L400.476 168.114C401.07 168.015 401.565 168.411 401.664 169.005L412.258 263.402C412.258 263.699 412.06 263.897 411.862 263.996C411.565 263.996 411.367 263.798 411.268 263.6L400.575 169.104L89.896 204.132L99.8955 293.087L110.885 390.749C111.479 396.093 116.33 399.952 121.578 399.259L413.149 366.408C415.723 366.111 418 364.825 419.584 362.846C421.168 360.867 421.96 358.294 421.663 355.721L416.614 310.601C416.614 310.304 416.812 310.106 417.01 310.007C417.208 310.007 417.505 310.205 417.604 310.403L422.653 355.524C422.951 358.294 422.158 361.164 420.376 363.341C418.594 365.517 416.119 367.002 413.248 367.299L121.776 400.347C121.281 400.347 120.885 400.446 120.489 400.446Z" fill="#180F35" stroke="#180F35" stroke-width="2.16"/>
<path d="M101.875 191.664L218.305 76.5865C225.928 68.9675 237.809 67.6811 247.017 73.3212L380.872 156.438" fill="#F25F57"/>
<path d="M97.5201 196.513C97.4211 196.513 97.2231 196.513 97.1241 196.414C96.9261 196.216 96.9261 195.919 97.1241 195.721L217.911 76.29C225.732 68.473 237.811 67.0877 247.216 72.9257L394.24 164.157C394.438 164.256 394.537 164.651 394.438 164.849C394.339 165.047 393.943 165.146 393.745 165.047L246.721 73.7173C237.712 68.1761 226.128 69.4625 218.604 76.8837L97.8171 196.315C97.7181 196.513 97.6191 196.513 97.5201 196.513Z" fill="#180F35" stroke="#180F35" stroke-width="2.16"/>
<path d="M105.542 111.614L308.602 88.7569C321.869 87.2727 333.75 95.3865 335.037 106.964L347.808 220.359L292.563 273.693L217.022 282.994L143.362 236.884L130.689 124.774L105.542 111.614Z" fill="white"/>
<path d="M217.021 283.489C216.922 283.489 216.823 283.489 216.724 283.39L143.064 237.28C142.965 237.181 142.866 237.082 142.866 236.884L136.728 182.462C136.728 182.165 136.926 181.967 137.124 181.868C137.421 181.868 137.619 182.066 137.718 182.264L143.856 236.389L217.318 282.302C217.516 282.401 217.615 282.796 217.516 282.994C217.318 283.39 217.12 283.489 217.021 283.489Z" fill="#180F35" stroke="#180F35" stroke-width="2.16"/>
<path d="M347.807 220.854C347.51 220.854 347.312 220.656 347.312 220.458L334.54 107.062C333.253 95.7822 321.669 87.8663 308.6 89.3506L139.895 108.349C139.598 108.349 139.4 108.151 139.301 107.953C139.301 107.656 139.499 107.458 139.697 107.359L308.402 88.3611C321.966 86.8768 334.045 95.1885 335.431 106.963L348.203 220.359C348.302 220.557 348.104 220.755 347.807 220.854Z" fill="#180F35" stroke="#180F35" stroke-width="2.16"/>
<path d="M399.586 367.991L275.532 258.554C262.562 247.175 242.662 249.352 232.563 263.402L137.32 397.379" fill="#31E7B1"/>
<path d="M144.747 385.901C144.648 385.901 144.549 385.901 144.45 385.802C144.252 385.604 144.153 385.307 144.351 385.109L232.069 263.105C236.921 256.278 244.544 251.924 252.861 250.935C261.177 250.044 269.494 252.617 275.83 258.158L399.884 367.596C400.082 367.793 400.082 368.09 399.884 368.288C399.686 368.486 399.389 368.486 399.191 368.288L275.137 258.95C269.098 253.606 260.979 251.034 252.96 251.924C244.94 252.815 237.614 257.069 232.862 263.699L145.143 385.703C145.044 385.802 144.945 385.901 144.747 385.901Z" fill="#180F35" stroke="#180F35" stroke-width="2.16"/>
<path d="M136.234 176.426L100.79 180.384L95.0479 129.821C93.9588 120.52 100.691 112.109 110.097 111.021L111.681 110.823C120.987 109.734 129.403 116.463 130.492 125.863L136.234 176.426Z" fill="white"/>
<path d="M100.79 180.878C100.691 180.878 100.592 180.878 100.493 180.779C100.394 180.68 100.295 180.581 100.295 180.482L94.5531 129.919C94.0581 125.269 95.3452 120.717 98.2163 117.056C101.087 113.395 105.345 111.119 109.998 110.624L111.582 110.426C116.235 109.931 120.79 111.218 124.453 114.087C128.116 116.957 130.393 121.212 130.888 125.862L136.63 176.425C136.63 176.722 136.432 176.92 136.234 177.019C135.937 177.019 135.739 176.821 135.64 176.623L129.898 126.06C129.403 121.706 127.225 117.748 123.76 114.978C120.295 112.207 116.037 111.02 111.582 111.515L109.998 111.713C105.642 112.207 101.682 114.384 98.9094 117.847C96.1372 121.311 94.9492 125.565 95.4442 130.018L101.087 180.086L123.166 177.613C123.463 177.613 123.661 177.811 123.76 178.008C123.76 178.305 123.562 178.503 123.364 178.602L100.79 180.878C100.889 180.878 100.889 180.878 100.79 180.878Z" fill="#180F35"/>
<path d="M100.79 180.878C100.691 180.878 100.592 180.878 100.493 180.779C100.394 180.68 100.295 180.581 100.295 180.482L94.5531 129.919C94.0581 125.269 95.3452 120.717 98.2163 117.056C101.087 113.395 105.345 111.119 109.998 110.624L111.582 110.426C116.235 109.931 120.79 111.218 124.453 114.087C128.116 116.957 130.393 121.212 130.888 125.862L136.63 176.425C136.63 176.722 136.432 176.92 136.234 177.019C135.937 177.019 135.739 176.821 135.64 176.623L129.898 126.06C129.403 121.706 127.225 117.748 123.76 114.978C120.295 112.207 116.037 111.02 111.582 111.515L109.998 111.713C105.642 112.207 101.682 114.384 98.9094 117.847C96.1372 121.311 94.9492 125.565 95.4442 130.018L101.087 180.086L123.166 177.613C123.463 177.613 123.661 177.811 123.76 178.008C123.76 178.305 123.562 178.503 123.364 178.602L100.79 180.878ZM100.79 180.878C100.889 180.878 100.889 180.878 100.79 180.878Z" stroke="#180F35" stroke-width="2.16"/>
<path d="M159.401 148.819C159.5 149.314 159.896 149.709 160.391 149.61L307.513 133.086C308.008 132.987 308.404 132.591 308.305 132.096C308.305 131.8 308.107 131.602 308.008 131.503C307.81 131.404 307.612 131.305 307.414 131.305H307.315L160.193 147.829C159.698 147.829 159.302 148.324 159.401 148.819Z" fill="#31E7B1"/>
<path d="M232.861 220.755C233.356 220.656 233.752 220.26 233.653 219.766C233.554 219.271 233.158 218.974 232.762 218.974H232.663L169.102 226.098C168.607 226.197 168.211 226.593 168.31 227.088C168.409 227.583 168.805 227.978 169.3 227.879L232.861 220.755Z" fill="#31E7B1"/>
<path d="M166.033 199.579L313.155 183.055C313.65 182.956 314.046 182.56 313.947 182.066C313.947 181.769 313.749 181.571 313.551 181.472C313.353 181.373 313.155 181.274 312.957 181.274H312.858L165.835 197.798C165.34 197.897 164.944 198.293 165.043 198.788C165.142 199.283 165.538 199.678 166.033 199.579Z" fill="#31E7B1"/>
<path d="M163.262 174.348L226.823 167.223C227.318 167.124 227.715 166.729 227.615 166.234C227.516 165.739 227.12 165.442 226.724 165.442H226.625L163.064 172.567C162.569 172.666 162.173 173.061 162.272 173.556C162.272 174.051 162.668 174.348 163.262 174.348Z" fill="#31E7B1"/>
<path d="M242.368 164.453C242.467 164.948 242.863 165.343 243.358 165.244L310.285 157.724C310.78 157.625 311.176 157.23 311.077 156.735C310.978 156.24 310.582 155.943 310.186 155.943H310.087L243.16 163.463C242.764 163.463 242.368 163.958 242.368 164.453Z" fill="#31E7B1"/>
<path d="M45.937 320.496C45.838 320.496 45.739 320.397 45.838 320.298C45.739 320.1 45.64 319.902 45.739 319.704L51.1843 307.632L44.4519 295.363C44.3529 295.165 44.3529 294.967 44.4519 294.868C44.5509 294.67 44.749 294.67 44.947 294.67L57.6197 297.836L66.3322 286.853C66.5302 286.754 66.6292 286.655 66.8272 286.655C67.0252 286.754 67.1242 286.853 67.2232 287.051L69.7973 300.904L82.4701 304.07C82.6681 304.169 82.7671 304.268 82.8661 304.466C82.8661 304.664 82.7671 304.862 82.6681 304.961L70.8864 312.481L69.8964 325.74C69.8964 325.938 69.6983 326.136 69.5993 326.136C69.5003 326.235 69.2033 326.235 69.1043 326.037L59.2038 317.131L46.333 320.199C46.036 320.595 45.937 320.595 45.937 320.496ZM45.64 295.956L51.8774 307.434C51.9764 307.533 51.9764 307.731 51.8774 307.83L46.7291 319.308L58.9067 316.34C59.0057 316.241 59.2038 316.34 59.4018 316.439L68.7083 324.849L69.6983 312.382C69.6983 312.283 69.7973 312.085 69.8964 312.085L80.886 304.961L69.0053 301.893C68.8073 301.794 68.7083 301.695 68.6093 301.497L66.2332 288.436L57.9167 298.826C57.7187 298.925 57.6197 299.024 57.4217 299.024L45.64 295.956Z" fill="#F7B517"/>
<path d="M234.047 39.4806C233.849 39.4806 233.651 39.2827 233.651 39.0849L230.581 26.2215L217.81 20.5814C217.612 20.5814 217.513 20.3835 217.513 20.1856C217.513 19.9877 217.612 19.8887 217.81 19.6908L229.789 14.5455L230.086 0.494745C230.086 0.296847 230.185 0.197898 230.383 0C230.581 0 230.779 0 230.878 0.098949L241.373 9.59805L253.353 4.4527C253.551 4.4527 253.749 4.4527 253.848 4.55165C253.947 4.74955 254.046 4.94745 253.947 5.0464L249.194 18.2066L256.422 29.2889C256.521 29.4868 256.521 29.6847 256.422 29.7836C256.323 29.8826 256.224 30.0805 255.927 29.9815L242.66 28.9921L234.344 39.2827C234.443 39.4806 234.047 39.5796 234.047 39.4806ZM219.097 20.1856L231.076 25.5288C231.175 25.6278 231.274 25.6278 231.373 25.8257L234.245 38.0954L242.066 28.2994C242.165 28.2005 242.363 28.1015 242.561 28.1015L255.036 29.091L248.204 18.6024C248.204 18.5035 248.105 18.3056 248.204 18.2066L252.66 5.83799L241.373 10.6865C241.175 10.6865 240.977 10.6865 240.878 10.5875L231.076 1.68213L230.779 15.0402C230.779 15.2381 230.68 15.3371 230.482 15.535L219.097 20.1856Z" fill="#F7B517"/>
<path d="M157.814 73.3202C157.22 73.3202 156.725 73.2212 156.23 72.9244C155.339 72.5286 154.646 71.737 154.349 70.8464L145.439 44.9218C145.142 44.0313 145.142 42.9428 145.637 42.1512C146.033 41.2607 146.825 40.5681 147.716 40.2712L150.686 39.2817C150.983 39.1828 151.181 39.2817 151.28 39.5786C151.379 39.8754 151.181 40.0733 150.983 40.1723L148.013 41.1618C147.32 41.3597 146.825 41.8544 146.429 42.547C146.132 43.2397 146.033 43.9323 146.33 44.625L155.24 70.5496C155.438 71.2422 155.933 71.737 156.626 72.1328C157.319 72.4296 158.012 72.5286 158.705 72.2317L188.407 62.1389C189.1 61.941 189.595 61.4463 189.991 60.7537C190.288 60.061 190.387 59.3684 190.09 58.6757L181.18 32.7511C180.982 32.0584 180.486 31.5637 179.793 31.1679C179.1 30.8711 178.407 30.7721 177.714 31.069L174.645 32.1574C174.348 32.2563 174.15 32.0584 174.051 31.8605C173.952 31.6626 174.15 31.3658 174.348 31.2669L177.417 30.1784C178.308 29.8816 179.397 29.8816 180.189 30.3763C180.982 30.8711 181.774 31.5637 182.071 32.4542L190.981 58.3789C191.674 60.2589 190.585 62.4358 188.704 63.0295L159.002 73.1223C158.705 73.2212 158.21 73.3202 157.814 73.3202Z" fill="#31E7B1"/>
<path d="M155.539 38.5902C155.341 38.5902 155.143 38.4913 155.044 38.2934C154.945 37.9965 155.143 37.7986 155.341 37.6997L169.895 32.7522C170.192 32.6533 170.39 32.7522 170.489 33.0491C170.588 33.3459 170.39 33.5438 170.192 33.6428L155.638 38.5902C155.737 38.4913 155.638 38.5902 155.539 38.5902Z" fill="#31E7B1"/>
<path d="M153.759 43.2405C152.571 43.2405 151.581 42.5479 151.185 41.3605L149.898 37.6004C149.7 36.9078 149.7 36.1162 149.997 35.5225C150.294 34.8299 150.888 34.3351 151.581 34.1372C152.274 33.9393 153.066 33.9393 153.66 34.2362C154.353 34.533 154.848 35.1267 155.046 35.8194L156.333 39.5794C156.828 40.9647 156.036 42.5479 154.65 43.0426C154.353 43.1416 154.056 43.2405 153.759 43.2405ZM152.472 34.9288C152.274 34.9288 152.076 34.9288 151.878 35.0278C151.482 35.2257 151.086 35.5225 150.888 35.9183C150.69 36.3141 150.69 36.8088 150.789 37.3036L152.076 41.0636C152.373 41.9542 153.363 42.4489 154.353 42.1521C155.244 41.8552 155.739 40.8657 155.442 39.8763L154.155 36.1162C153.957 35.7204 153.66 35.3246 153.264 35.1267C152.967 35.0278 152.769 34.9288 152.472 34.9288Z" fill="#31E7B1"/>
<path d="M172.965 36.6104C172.569 36.6104 172.173 36.5114 171.777 36.3135C171.084 36.0167 170.589 35.423 170.391 34.7304L169.104 30.9703C168.609 29.585 169.401 28.0018 170.787 27.5071C171.48 27.3092 172.272 27.3092 172.866 27.606C173.559 27.9029 174.054 28.4966 174.252 29.1892L175.539 32.9493C175.737 33.6419 175.737 34.4335 175.44 35.0272C175.143 35.7199 174.549 36.2146 173.856 36.4125C173.559 36.6104 173.262 36.6104 172.965 36.6104ZM171.678 28.3976C171.48 28.3976 171.282 28.3976 171.084 28.4966C170.193 28.7934 169.698 29.7829 169.995 30.7724L171.282 34.5325C171.48 34.9283 171.777 35.3241 172.173 35.522C172.569 35.7199 173.064 35.7199 173.559 35.6209C173.955 35.423 174.351 35.1262 174.549 34.7304C174.747 34.3346 174.747 33.8398 174.648 33.3451L173.361 29.585C173.163 29.1892 172.866 28.7934 172.47 28.5955C172.173 28.4966 171.975 28.3976 171.678 28.3976Z" fill="#31E7B1"/>
<path d="M161.578 64.9096C161.38 64.9096 161.281 64.8106 161.182 64.7117C160.984 64.3159 160.786 64.019 160.687 63.7222C160.588 63.4253 160.489 62.9306 160.489 62.5348C160.489 62.3369 160.588 62.139 160.786 62.0401L162.865 61.3474C163.063 61.2485 163.261 61.2485 163.558 61.1495H163.657C163.558 60.7537 163.36 60.4569 163.36 60.0611L161.578 55.0147C161.479 54.7178 161.281 54.2231 161.182 53.6294V53.5304C160.588 54.6189 159.796 55.5094 159.301 56.0042C159.202 56.1031 159.004 56.2021 158.905 56.1031C158.113 56.0042 157.42 55.4105 157.024 54.7178C156.925 54.5199 156.925 54.322 157.123 54.2231C158.608 52.3431 159.598 50.3641 159.697 48.7809C159.697 48.583 159.796 48.484 159.994 48.3851C160.39 48.1872 160.786 47.9893 161.182 47.8904C161.479 47.7914 161.875 47.6925 162.271 47.5935C162.469 47.4946 162.766 47.6925 162.865 47.8904L166.627 58.9726C166.726 59.1705 166.825 59.4674 166.924 59.7642C166.924 59.8632 166.924 59.9621 167.023 59.9621C167.122 59.9621 167.122 59.9621 167.221 59.8632C167.518 59.7642 167.716 59.6653 167.914 59.5663L169.498 59.0716C169.696 58.9726 169.894 59.0716 170.092 59.2695C170.29 59.6653 170.488 59.9621 170.587 60.4569C170.686 60.6548 170.785 61.1495 170.785 61.5453C170.785 61.7432 170.686 61.9411 170.488 62.0401L162.073 64.9096C161.677 64.9096 161.677 64.9096 161.578 64.9096ZM161.578 62.8317C161.578 63.0295 161.677 63.1285 161.677 63.3264C161.776 63.5243 161.776 63.6232 161.875 63.7222L169.498 61.1495C169.498 60.9516 169.399 60.8527 169.399 60.6548C169.3 60.4569 169.3 60.259 169.201 60.0611L168.013 60.4569C167.914 60.4569 167.617 60.5558 167.419 60.6548C167.122 60.7537 166.924 60.8527 166.726 60.9516C166.429 61.0506 166.231 60.9516 166.132 60.6548C166.033 60.3579 165.934 60.16 165.835 59.8632C165.736 59.6653 165.736 59.3684 165.637 59.1705L161.974 48.484C161.776 48.583 161.578 48.583 161.38 48.6819C161.182 48.7809 160.885 48.8798 160.588 48.9788C160.39 50.6609 159.499 52.541 158.014 54.421C158.212 54.6189 158.41 54.8168 158.707 54.9157C159.697 53.9262 160.39 52.7389 160.786 51.7494C160.885 51.5515 160.984 51.4525 161.281 51.4525C161.479 51.4525 161.677 51.5515 161.776 51.8483C161.875 52.3431 162.073 52.8378 162.172 53.2336C162.271 53.7283 162.469 54.2231 162.568 54.6189L164.35 59.7642C164.449 60.259 164.647 60.7537 164.845 61.2485C164.944 61.3474 164.845 61.5453 164.845 61.6443C164.746 61.7432 164.647 61.8422 164.548 61.9411C164.35 62.0401 164.152 62.0401 163.855 62.139C163.657 62.238 163.36 62.238 163.261 62.3369L161.578 62.8317ZM174.548 60.259C173.656 60.259 172.864 60.0611 172.171 59.7642C171.973 59.6653 171.874 59.5663 171.874 59.3684C171.775 58.6758 171.973 57.6863 172.468 57.0926C172.567 56.8947 172.765 56.8947 172.963 56.8947C174.151 57.1916 175.142 57.1916 176.132 56.8947C177.221 56.4989 178.211 55.4105 177.617 53.2336C177.32 52.442 176.924 51.8483 176.33 51.5515C175.637 51.2546 174.944 51.4525 174.548 51.5515C173.953 51.7494 173.161 52.1452 172.666 53.1347C172.567 53.2336 172.468 53.3326 172.369 53.3326C171.775 53.4315 170.983 53.2336 170.488 52.8378C170.389 52.7389 170.389 52.7389 170.389 52.6399L168.409 45.8124C168.409 45.7135 168.409 45.6145 168.409 45.4166L168.508 45.2187C168.607 45.1198 168.706 45.0208 168.805 44.9219L176.429 42.3492C176.627 42.2503 176.726 42.3492 176.924 42.4482C177.023 42.5471 177.122 42.6461 177.122 42.844C177.122 43.2398 177.32 43.5366 177.32 43.7345V43.8334C177.419 44.3282 177.419 44.724 177.32 45.0208C177.221 45.3177 176.924 45.6145 176.33 45.8124L172.072 47.1977L172.27 47.7914L172.765 49.2756C173.161 48.9788 173.656 48.7809 174.151 48.583C177.32 47.5935 179.894 48.8798 180.884 51.9473C181.478 53.6294 181.478 55.2126 180.785 56.5979C180.092 57.9832 178.805 59.0716 177.221 59.6653C176.33 60.0611 175.439 60.259 174.548 60.259ZM172.864 58.9726C174.052 59.3684 175.439 59.3684 176.924 58.8737C178.31 58.3789 179.399 57.4884 179.894 56.4C180.488 55.3115 180.488 53.9262 179.993 52.541C179.102 49.9683 177.023 48.9788 174.448 49.7704C173.755 50.0672 173.26 50.2651 172.765 50.7599C172.666 50.8588 172.468 50.9578 172.27 50.8588C172.072 50.7599 171.973 50.6609 171.973 50.463L171.874 49.8693L170.983 47.2967C170.983 47.1977 170.983 46.9998 170.983 46.9009C170.983 46.8019 171.181 46.703 171.28 46.604L176.033 45.0208C176.231 44.9219 176.33 44.9219 176.429 44.724C176.528 44.625 176.429 44.4271 176.429 44.2292C176.33 44.1303 176.231 43.9324 176.231 43.6355L169.498 45.9114L171.28 52.3431C171.478 52.442 171.676 52.541 171.973 52.541C172.468 51.7494 173.359 51.0567 174.25 50.7599C175.142 50.463 176.033 50.463 176.825 50.7599C177.617 51.1557 178.31 51.9473 178.706 53.0357C179.597 55.8063 178.112 57.3895 176.627 57.8842C175.538 58.181 174.448 58.28 173.26 57.9832C172.963 58.28 172.864 58.6758 172.864 58.9726Z" fill="#31E7B1"/>
<path d="M97.5221 75.2015C97.2251 75.2015 97.0271 75.0036 97.0271 74.7068C97.0271 67.6814 91.3838 62.0413 84.3544 62.0413C84.0574 62.0413 83.8594 61.8434 83.8594 61.5466C83.8594 61.2497 84.0574 61.0518 84.3544 61.0518C91.3838 61.0518 97.0271 55.4117 97.0271 48.3863C97.0271 48.0895 97.2251 47.8916 97.5221 47.8916C97.8191 47.8916 98.0172 48.0895 98.0172 48.3863C98.0172 55.4117 103.66 61.0518 110.69 61.0518C110.987 61.0518 111.185 61.2497 111.185 61.5466C111.185 61.8434 110.987 62.0413 110.69 62.0413C103.66 62.0413 98.0172 67.6814 98.0172 74.7068C98.0172 75.0036 97.8191 75.2015 97.5221 75.2015ZM88.0176 61.5466C92.6709 62.8329 96.2351 66.494 97.5221 71.0457C98.8092 66.3951 102.472 62.8329 107.027 61.5466C102.373 60.2602 98.8092 56.5991 97.5221 52.0475C96.2351 56.5991 92.5719 60.2602 88.0176 61.5466Z" fill="#6591FE"/>
<path d="M272.169 480C271.872 480 271.674 479.802 271.674 479.505C271.674 472.48 266.031 466.84 259.001 466.84C258.704 466.84 258.506 466.642 258.506 466.345C258.506 466.048 258.704 465.85 259.001 465.85C266.031 465.85 271.674 460.21 271.674 453.185C271.674 452.888 271.872 452.69 272.169 452.69C272.466 452.69 272.664 452.888 272.664 453.185C272.664 460.21 278.307 465.85 285.337 465.85C285.634 465.85 285.832 466.048 285.832 466.345C285.832 466.642 285.634 466.84 285.337 466.84C278.307 466.84 272.664 472.48 272.664 479.505C272.664 479.802 272.466 480 272.169 480ZM262.665 466.345C267.318 467.631 270.882 471.292 272.169 475.844C273.456 471.194 277.119 467.631 281.674 466.345C277.02 465.059 273.456 461.398 272.169 456.846C270.882 461.398 267.219 465.059 262.665 466.345Z" fill="#6591FE"/>
<path d="M399.587 411.033C399.29 411.033 399.092 410.836 399.092 410.539C399.092 403.513 393.449 397.873 386.42 397.873C386.123 397.873 385.925 397.675 385.925 397.378C385.925 397.082 386.123 396.884 386.42 396.884C393.449 396.884 399.092 391.244 399.092 384.218C399.092 383.921 399.29 383.724 399.587 383.724C399.884 383.724 400.082 383.921 400.082 384.218C400.082 391.244 405.726 396.884 412.755 396.884C413.052 396.884 413.25 397.082 413.25 397.378C413.25 397.675 413.052 397.873 412.755 397.873C405.726 397.873 400.082 403.513 400.082 410.539C400.082 410.737 399.884 411.033 399.587 411.033ZM390.083 397.28C394.736 398.566 398.3 402.227 399.587 406.779C400.874 402.128 404.538 398.566 409.092 397.28C404.439 395.993 400.874 392.332 399.587 387.78C398.3 392.431 394.736 396.092 390.083 397.28Z" fill="#F7B517"/>
<path d="M462.159 154.063C461.862 154.063 461.664 153.865 461.664 153.568C461.664 146.543 456.021 140.903 448.991 140.903C448.694 140.903 448.496 140.705 448.496 140.408C448.496 140.111 448.694 139.914 448.991 139.914C456.021 139.914 461.664 134.273 461.664 127.248C461.664 126.951 461.862 126.753 462.159 126.753C462.456 126.753 462.654 126.951 462.654 127.248C462.654 134.273 468.297 139.914 475.327 139.914C475.624 139.914 475.822 140.111 475.822 140.408C475.822 140.705 475.624 140.903 475.327 140.903C468.297 140.903 462.654 146.543 462.654 153.568C462.654 153.865 462.456 154.063 462.159 154.063ZM452.654 140.408C457.308 141.695 460.872 145.356 462.159 149.907C463.446 145.257 467.109 141.695 471.663 140.408C467.01 139.122 463.446 135.461 462.159 130.909C460.872 135.461 457.308 139.122 452.654 140.408Z" fill="#F7B517"/>
<path d="M442.854 222.832C442.557 222.832 442.359 222.635 442.359 222.338C442.359 212.641 434.537 204.824 424.835 204.824C424.538 204.824 424.34 204.626 424.34 204.329C424.34 204.032 424.538 203.834 424.835 203.834C434.537 203.834 442.359 196.017 442.359 186.32C442.359 186.023 442.557 185.826 442.854 185.826C443.151 185.826 443.349 186.023 443.349 186.32C443.349 196.017 451.17 203.834 460.873 203.834C461.17 203.834 461.368 204.032 461.368 204.329C461.368 204.626 461.17 204.824 460.873 204.824C451.17 204.824 443.349 212.641 443.349 222.338C443.349 222.635 443.151 222.832 442.854 222.832ZM429.092 204.329C435.923 205.912 441.27 211.255 442.854 218.083C444.438 211.255 449.784 205.912 456.615 204.329C449.784 202.746 444.438 197.403 442.854 190.575C441.27 197.403 435.923 202.746 429.092 204.329Z" fill="#F25F57"/>
<path d="M233.653 437.453C233.356 437.453 233.158 437.255 233.158 436.958C233.158 427.261 225.336 419.444 215.634 419.444C215.337 419.444 215.139 419.246 215.139 418.95C215.139 418.653 215.337 418.455 215.634 418.455C225.336 418.455 233.158 410.638 233.158 400.941C233.158 400.644 233.356 400.446 233.653 400.446C233.95 400.446 234.148 400.644 234.148 400.941C234.148 410.638 241.969 418.455 251.672 418.455C251.969 418.455 252.167 418.653 252.167 418.95C252.167 419.246 251.969 419.444 251.672 419.444C241.969 419.444 234.148 427.261 234.148 436.958C234.148 437.255 233.95 437.453 233.653 437.453ZM219.891 418.95C226.723 420.533 232.069 425.876 233.653 432.703C235.237 425.876 240.583 420.533 247.415 418.95C240.583 417.366 235.237 412.023 233.653 405.196C232.069 412.023 226.723 417.366 219.891 418.95Z" fill="#F25F57"/>
<path d="M66.2379 122.3C65.9409 122.3 65.7429 122.102 65.7429 121.805C65.7429 112.108 57.9214 104.292 48.2189 104.292C47.9219 104.292 47.7239 104.094 47.7239 103.797C47.7239 103.5 47.9219 103.302 48.2189 103.302C57.9214 103.302 65.7429 95.4851 65.7429 85.788C65.7429 85.4912 65.9409 85.2933 66.2379 85.2933C66.5349 85.2933 66.7329 85.4912 66.7329 85.788C66.7329 95.4851 74.5544 103.302 84.2569 103.302C84.5539 103.302 84.7519 103.5 84.7519 103.797C84.7519 104.094 84.5539 104.292 84.2569 104.292C74.5544 104.292 66.7329 112.108 66.7329 121.805C66.7329 122.003 66.5349 122.3 66.2379 122.3ZM52.5751 103.797C59.4065 105.38 64.7528 110.723 66.3369 117.551C67.921 110.723 73.2673 105.38 80.0987 103.797C73.2673 102.214 67.921 96.8703 66.3369 90.0429C64.6538 96.7714 59.3075 102.214 52.5751 103.797Z" fill="#F7B517"/>
<path d="M88.7115 418.949C88.6125 418.949 88.4145 418.85 88.3154 418.85L78.8109 409.351H58.9108C55.4456 409.351 52.5745 406.482 52.5745 403.018V382.041C52.5745 378.578 55.4456 375.708 58.9108 375.708H91.5826C95.0478 375.708 97.919 378.578 97.919 382.041V402.919C97.919 406.383 95.0478 409.252 91.5826 409.252H89.1075V418.356C89.1075 418.553 89.0085 418.751 88.8105 418.85C88.8105 418.949 88.7115 418.949 88.7115 418.949ZM58.9108 376.599C55.9407 376.599 53.5645 378.974 53.5645 381.942V402.919C53.5645 405.888 55.9407 408.263 58.9108 408.263H79.0089C79.1079 408.263 79.3059 408.362 79.405 408.362L88.2164 417.168V408.757C88.2164 408.461 88.4145 408.263 88.7115 408.263H91.6816C94.6518 408.263 97.0279 405.888 97.0279 402.919V381.942C97.0279 378.974 94.6518 376.599 91.6816 376.599H58.9108Z" fill="#F25F57"/>
<path d="M63.5591 396.886C61.282 396.886 59.4009 395.006 59.4009 392.73C59.4009 390.454 61.282 388.574 63.5591 388.574C65.8362 388.574 67.7173 390.454 67.7173 392.73C67.7173 395.006 65.7372 396.886 63.5591 396.886ZM63.5591 389.662C61.876 389.662 60.3909 391.048 60.3909 392.829C60.3909 394.61 61.777 395.995 63.5591 395.995C65.2422 395.995 66.7273 394.61 66.7273 392.829C66.7273 391.048 65.2422 389.662 63.5591 389.662Z" fill="#F25F57"/>
<path d="M75.2481 396.885C72.9709 396.885 71.0898 395.005 71.0898 392.729C71.0898 390.453 72.9709 388.573 75.2481 388.573C77.5252 388.573 79.4063 390.453 79.4063 392.729C79.4063 395.005 77.5252 396.885 75.2481 396.885ZM75.2481 389.662C73.565 389.662 72.0799 391.047 72.0799 392.828C72.0799 394.609 73.466 395.994 75.2481 395.994C76.9312 395.994 78.4162 394.609 78.4162 392.828C78.4162 391.047 76.9312 389.662 75.2481 389.662Z" fill="#F25F57"/>
<path d="M86.9243 396.886C84.6472 396.886 82.7661 395.006 82.7661 392.73C82.7661 390.454 84.6472 388.574 86.9243 388.574C89.2015 388.574 91.0826 390.454 91.0826 392.73C91.0826 395.006 89.2015 396.886 86.9243 396.886ZM86.9243 389.663C85.2413 389.663 83.7562 391.048 83.7562 392.829C83.7562 394.61 85.1423 395.995 86.9243 395.995C88.7064 395.995 90.0925 394.61 90.0925 392.829C90.0925 391.048 88.7064 389.663 86.9243 389.663Z" fill="#F25F57"/>
<path d="M363.546 77.7734C363.447 77.7734 363.447 77.7734 363.348 77.7734L343.646 69.2638H332.954C329.785 69.2638 327.31 66.6911 326.32 62.3373C326.221 62.0405 326.419 61.8426 326.716 61.7436C327.013 61.6447 327.211 61.8426 327.31 62.1394C327.607 63.6237 329.092 68.2743 333.053 68.2743H343.844C343.943 68.2743 343.943 68.2743 344.042 68.2743L363.15 76.586V68.769C363.15 68.4722 363.348 68.2743 363.645 68.2743H370.378C374.635 68.2743 377.506 62.6342 377.506 58.8741V35.2253C377.506 31.3663 374.734 28.9915 370.378 28.9915H351.963C351.666 28.9915 351.468 28.7936 351.468 28.4968C351.468 28.1999 351.666 28.002 351.963 28.002H370.279C375.328 28.002 378.397 30.7726 378.397 35.2253V58.8741C378.397 63.1289 375.229 69.2638 370.279 69.2638H364.041V77.3776C364.041 77.5755 363.942 77.6744 363.843 77.7734C363.744 77.7734 363.645 77.7734 363.546 77.7734Z" fill="#180F35"/>
<path d="M362.258 51.2549C364.172 51.2549 365.724 49.7044 365.724 47.7917C365.724 45.8791 364.172 44.3285 362.258 44.3285C360.345 44.3285 358.793 45.8791 358.793 47.7917C358.793 49.7044 360.345 51.2549 362.258 51.2549Z" fill="#6591FE"/>
<path d="M351.867 51.2546C353.781 51.2546 355.332 49.7041 355.332 47.7914C355.332 45.8787 353.781 44.3282 351.867 44.3282C349.953 44.3282 348.402 45.8787 348.402 47.7914C348.402 49.7041 349.953 51.2546 351.867 51.2546Z" fill="#6591FE"/>
<path d="M298.401 68.8682C298.302 68.8682 298.203 68.8682 298.104 68.7693C298.005 68.6703 297.906 68.5714 297.906 68.3735V58.0828H290.184C284.144 58.0828 280.382 50.8595 280.382 45.7142V16.6232C280.382 10.9831 284.243 7.4209 290.184 7.4209H295.827C296.124 7.4209 296.322 7.6188 296.322 7.91564C296.322 8.21249 296.124 8.41039 295.827 8.41039H290.184C284.837 8.41039 281.372 11.6757 281.372 16.6232V45.7142C281.372 50.3648 284.837 57.0933 290.184 57.0933H298.401C298.698 57.0933 298.896 57.2912 298.896 57.588V67.5819L322.558 57.0933C322.657 57.0933 322.657 57.0933 322.756 57.0933H336.023C341.468 57.0933 344.538 50.3648 344.538 45.7142V16.6232C344.538 11.5768 341.27 8.41039 336.023 8.41039H317.113C316.816 8.41039 316.618 8.21249 316.618 7.91564C316.618 7.6188 316.816 7.4209 317.113 7.4209H336.023C341.765 7.4209 345.528 11.082 345.528 16.6232V45.7142C345.528 50.7605 342.161 58.0828 336.023 58.0828H322.855L298.599 68.8682C298.5 68.8682 298.5 68.8682 298.401 68.8682Z" fill="#180F35"/>
<path d="M303.095 34.9838C304.757 33.3223 304.757 30.6283 303.095 28.9667C301.432 27.3051 298.737 27.3051 297.074 28.9667C295.411 30.6283 295.411 33.3223 297.074 34.9839C298.737 36.6454 301.432 36.6454 303.095 34.9838Z" fill="#F7B517"/>
<path d="M315.873 35.0033C317.535 33.3417 317.535 30.6477 315.873 28.9861C314.21 27.3245 311.515 27.3245 309.852 28.9861C308.19 30.6477 308.19 33.3417 309.852 35.0033C311.515 36.6649 314.21 36.6649 315.873 35.0033Z" fill="#F7B517"/>
<path d="M330.044 32.9091C330.583 30.6217 329.164 28.3313 326.875 27.7931C324.586 27.255 322.295 28.673 321.756 30.9604C321.218 33.2478 322.637 35.5383 324.925 36.0764C327.214 36.6145 329.506 35.1965 330.044 32.9091Z" fill="#F7B517"/>
<path d="M296.722 269.932C296.623 269.932 296.425 269.833 296.326 269.734C296.128 269.537 296.128 269.24 296.326 269.042L400.678 168.708C400.876 168.51 401.173 168.51 401.371 168.708C401.569 168.905 401.569 169.202 401.371 169.4L297.118 269.734C297.019 269.833 296.821 269.932 296.722 269.932Z" fill="#180F35" stroke="#180F35" stroke-width="2.16"/>
<path d="M205.436 276.266C205.337 276.266 205.238 276.266 205.139 276.167L89.0052 204.033C88.8072 203.934 88.7081 203.538 88.8072 203.34C88.9062 203.142 89.3022 203.043 89.5002 203.142L205.634 275.276C205.832 275.375 205.931 275.771 205.832 275.969C205.733 276.167 205.634 276.266 205.436 276.266Z" fill="#180F35" stroke="#180F35" stroke-width="2.16"/>
<path d="M168.212 468.919C167.717 468.919 167.321 468.82 166.925 468.523C166.727 468.424 161.776 465.159 156.727 459.321C149.995 451.603 146.43 442.994 146.43 434.386C146.43 422.314 156.232 412.617 168.212 412.617C180.29 412.617 189.993 422.413 189.993 434.386C189.993 442.895 186.429 451.504 179.696 459.321C174.647 465.159 169.697 468.424 169.499 468.523C169.202 468.82 168.707 468.919 168.212 468.919ZM168.212 413.606C156.727 413.606 147.42 422.908 147.42 434.386C147.42 442.698 150.886 451.009 157.519 458.628C162.469 464.367 167.519 467.633 167.519 467.633C168.014 467.93 168.608 467.93 169.103 467.633C169.202 467.633 174.152 464.367 179.102 458.628C185.637 451.009 189.201 442.698 189.201 434.386C189.102 423.007 179.696 413.606 168.212 413.606ZM168.212 443.39C163.261 443.39 159.301 439.333 159.301 434.485C159.301 429.537 163.36 425.579 168.212 425.579C173.162 425.579 177.122 429.636 177.122 434.485C177.221 439.432 173.162 443.39 168.212 443.39ZM168.212 426.47C163.855 426.47 160.291 430.032 160.291 434.386C160.291 438.74 163.855 442.302 168.212 442.302C172.568 442.302 176.132 438.74 176.132 434.386C176.231 430.032 172.667 426.47 168.212 426.47Z" fill="#F7B517"/>
<path d="M426.119 128.04H414.832C414.535 128.04 414.337 127.842 414.337 127.545V115.671C414.337 115.276 414.04 114.979 413.644 114.979H407.605C407.209 114.979 406.912 115.276 406.912 115.671V127.545C406.912 127.842 406.714 128.04 406.417 128.04H395.229C394.338 128.04 393.546 127.347 393.546 126.358V106.766C393.546 106.271 393.744 105.776 394.239 105.48L409.684 93.8037C410.278 93.4079 411.07 93.4079 411.664 93.8037L427.109 105.48C427.505 105.776 427.802 106.271 427.802 106.766V126.358C427.802 127.347 427.01 128.04 426.119 128.04ZM415.327 127.051H426.02C426.416 127.051 426.713 126.754 426.713 126.358V106.766C426.713 106.568 426.614 106.37 426.416 106.271L410.971 94.5952C410.773 94.3973 410.377 94.3973 410.179 94.5952L394.734 106.271C394.536 106.37 394.437 106.568 394.437 106.766V126.358C394.437 126.754 394.734 127.051 395.13 127.051H405.922V115.671C405.922 114.781 406.714 113.989 407.605 113.989H413.644C414.535 113.989 415.327 114.781 415.327 115.671V127.051Z" fill="#31E7B1"/>
<path d="M462.156 301.003C462.057 301.003 461.958 301.003 461.859 300.904C458.295 298.826 455.325 295.461 453.147 291.404C453.048 291.207 453.048 291.108 453.147 290.91C453.246 290.712 453.444 290.712 453.543 290.712H470.671C470.869 290.712 470.968 290.811 471.067 290.91C471.166 291.108 471.166 291.207 471.067 291.404C468.889 295.56 465.82 298.826 462.354 300.904C462.354 301.003 462.255 301.003 462.156 301.003ZM454.434 291.701C456.414 295.263 459.087 298.034 462.156 300.013C465.225 298.133 467.899 295.263 469.879 291.701H454.434ZM468.196 300.508C467.998 300.508 467.899 300.409 467.8 300.211C467.701 300.013 467.701 299.815 467.899 299.617C470.374 297.242 472.453 294.274 473.938 290.91C474.037 290.712 474.235 290.613 474.433 290.613H481.858C482.056 290.613 482.254 290.712 482.254 290.91C482.353 291.108 482.353 291.306 482.155 291.404C478.69 295.857 473.74 299.024 468.295 300.409C468.295 300.508 468.295 300.508 468.196 300.508ZM474.73 291.701C473.443 294.472 471.76 296.946 469.879 299.024C474.037 297.638 477.898 295.066 480.769 291.701H474.73ZM456.117 300.508H456.018C450.573 299.122 445.622 295.956 442.157 291.503C442.058 291.306 442.058 291.108 442.058 291.009C442.157 290.811 442.355 290.712 442.454 290.712H449.88C450.078 290.712 450.276 290.811 450.375 291.009C451.959 294.373 454.038 297.341 456.414 299.716C456.612 299.914 456.612 300.112 456.513 300.31C456.414 300.409 456.216 300.508 456.117 300.508ZM443.543 291.701C446.414 295.066 450.276 297.638 454.434 299.024C452.553 296.946 450.87 294.472 449.583 291.701H443.543ZM484.037 288.337H475.72C475.522 288.337 475.423 288.238 475.324 288.139C475.225 288.04 475.225 287.842 475.225 287.644C476.314 284.379 477.007 280.916 477.106 277.354C477.106 277.057 477.304 276.859 477.601 276.859H487.007C487.106 276.859 487.304 276.958 487.403 277.057C487.502 277.156 487.502 277.255 487.502 277.453C487.304 281.213 486.215 284.775 484.334 288.04C484.334 288.238 484.235 288.337 484.037 288.337ZM476.413 287.348H483.74C485.324 284.379 486.314 281.213 486.611 277.947H478.195C477.997 281.213 477.403 284.379 476.413 287.348ZM472.255 288.337H452.157C451.959 288.337 451.761 288.238 451.662 288.04C450.375 284.775 449.682 281.213 449.484 277.453C449.484 277.354 449.484 277.156 449.583 277.057C449.682 276.958 449.781 276.859 449.979 276.859H474.334C474.433 276.859 474.631 276.958 474.73 277.057C474.829 277.156 474.829 277.255 474.829 277.453C474.631 281.114 473.938 284.676 472.651 288.04C472.552 288.238 472.453 288.337 472.255 288.337ZM452.454 287.348H471.859C472.948 284.379 473.641 281.213 473.839 277.947H450.474C450.672 281.213 451.365 284.379 452.454 287.348ZM448.593 288.337H440.276C440.078 288.337 439.979 288.238 439.88 288.04C438.098 284.775 437.009 281.213 436.712 277.453C436.712 277.354 436.712 277.156 436.811 277.057C436.91 276.958 437.009 276.859 437.207 276.859H446.612C446.909 276.859 447.107 277.057 447.107 277.354C447.306 280.916 447.9 284.379 448.989 287.644C449.088 287.842 448.989 287.941 448.89 288.139C448.89 288.337 448.692 288.337 448.593 288.337ZM440.573 287.348H447.9C446.909 284.379 446.315 281.213 446.216 277.947H437.801C437.999 281.312 438.989 284.478 440.573 287.348ZM487.106 274.682H477.7C477.403 274.682 477.205 274.484 477.205 274.187C477.007 270.625 476.413 267.162 475.324 263.897C475.225 263.699 475.324 263.6 475.423 263.402C475.522 263.303 475.621 263.204 475.819 263.204H484.136C484.334 263.204 484.433 263.303 484.532 263.501C486.314 266.766 487.403 270.328 487.7 274.088C487.7 274.187 487.7 274.385 487.601 274.484C487.502 274.583 487.205 274.682 487.106 274.682ZM478.096 273.693H486.512C486.215 270.328 485.225 267.162 483.641 264.292H476.314C477.403 267.261 477.997 270.427 478.096 273.693ZM474.334 274.682H449.979C449.88 274.682 449.682 274.583 449.583 274.484C449.484 274.385 449.484 274.286 449.484 274.088C449.682 270.427 450.375 266.865 451.662 263.501C451.761 263.303 451.959 263.204 452.157 263.204H472.255C472.453 263.204 472.651 263.303 472.75 263.501C474.037 266.766 474.73 270.328 474.928 274.088C474.928 274.187 474.928 274.385 474.829 274.484C474.631 274.583 474.433 274.682 474.334 274.682ZM450.474 273.693H473.839C473.641 270.427 472.948 267.261 471.859 264.292H452.454C451.365 267.162 450.672 270.328 450.474 273.693ZM446.612 274.682H437.207C437.108 274.682 436.91 274.583 436.811 274.484C436.712 274.385 436.712 274.286 436.712 274.088C436.91 270.328 437.999 266.766 439.88 263.501C439.979 263.303 440.177 263.204 440.276 263.204H448.593C448.791 263.204 448.89 263.303 448.989 263.402C449.088 263.501 449.088 263.699 449.088 263.897C447.999 267.162 447.306 270.625 447.207 274.187C447.108 274.385 446.909 274.682 446.612 274.682ZM437.702 273.693H446.117C446.315 270.427 446.909 267.261 447.801 264.292H440.573C438.989 267.162 437.999 270.328 437.702 273.693ZM481.858 260.928H474.433C474.235 260.928 474.037 260.829 473.938 260.631C472.354 257.267 470.275 254.299 467.899 251.924C467.701 251.726 467.701 251.528 467.8 251.33C467.899 251.132 468.097 251.033 468.394 251.132C473.839 252.518 478.789 255.684 482.254 260.137C482.353 260.334 482.353 260.532 482.353 260.631C482.155 260.829 481.957 260.928 481.858 260.928ZM474.73 259.939H480.769C477.898 256.574 474.037 254.002 469.879 252.616C471.76 254.694 473.443 257.168 474.73 259.939ZM470.671 260.928H453.543C453.345 260.928 453.246 260.829 453.147 260.73C453.048 260.532 453.048 260.433 453.147 260.236C455.325 256.08 458.394 252.814 461.859 250.736C462.057 250.637 462.255 250.637 462.354 250.736C465.919 252.814 468.889 256.179 471.067 260.236C471.166 260.433 471.166 260.532 471.067 260.73C471.067 260.829 470.869 260.928 470.671 260.928ZM454.434 259.939H469.879C467.899 256.377 465.225 253.606 462.156 251.627C459.087 253.507 456.414 256.377 454.434 259.939ZM449.88 260.928H442.454C442.256 260.928 442.058 260.829 442.058 260.631C441.959 260.433 441.959 260.236 442.157 260.137C445.622 255.684 450.573 252.518 456.018 251.132C456.216 251.033 456.414 251.132 456.612 251.33C456.711 251.528 456.711 251.726 456.513 251.924C454.038 254.299 451.959 257.267 450.474 260.631C450.276 260.829 450.078 260.928 449.88 260.928ZM443.543 259.939H449.583C450.87 257.168 452.553 254.694 454.434 252.616C450.177 254.002 446.414 256.475 443.543 259.939Z" fill="#6591FE"/>
<path d="M315.731 453.879C315.335 453.879 314.84 453.78 314.444 453.583C314.345 453.484 314.246 453.385 314.147 453.286C314.147 453.187 314.147 452.989 314.246 452.89L327.413 432.012C327.512 431.913 327.611 431.814 327.71 431.814C327.809 431.814 328.007 431.814 328.106 431.913L338.007 438.146C339.492 439.136 341.274 439.433 342.957 439.037C344.64 438.641 346.126 437.652 347.116 436.069L353.353 426.174C353.452 425.976 353.848 425.877 354.046 425.976L374.936 439.136C375.035 439.235 375.134 439.334 375.134 439.433C375.134 439.532 375.134 439.73 375.035 439.829C374.639 440.323 374.045 440.719 373.352 440.917L316.226 453.879C316.127 453.78 315.929 453.879 315.731 453.879ZM315.434 452.791C315.632 452.791 315.929 452.791 316.127 452.791L373.253 439.829C373.451 439.73 373.748 439.631 373.946 439.532L353.947 426.965L347.908 436.464C346.819 438.147 345.135 439.334 343.155 439.829C341.175 440.323 339.096 439.928 337.413 438.839L327.909 432.902L315.434 452.791ZM312.464 448.14C312.167 448.14 312.068 447.942 311.969 447.745L305.335 418.456C305.335 418.258 305.335 418.06 305.533 417.961C305.731 417.862 305.929 417.862 306.127 417.961L324.047 429.241C324.146 429.34 324.245 429.439 324.245 429.538C324.245 429.637 324.245 429.835 324.146 429.934L312.86 447.942C312.761 448.041 312.662 448.14 312.464 448.14ZM306.622 419.445L312.761 446.359L323.156 429.835L306.622 419.445ZM341.472 435.277C340.977 435.277 340.383 435.079 339.987 434.881L305.137 412.914C305.038 412.816 304.939 412.717 304.939 412.618C304.939 412.519 304.939 412.321 305.038 412.222V412.123L305.434 412.42L305.038 412.123L305.137 412.024L305.236 411.925L305.335 411.826L305.434 411.727L305.533 411.628L305.632 411.529C305.632 411.529 305.731 411.529 305.731 411.43L305.83 411.331L305.929 411.232L306.028 411.133L306.127 411.034H306.226C306.226 411.034 306.325 411.034 306.325 410.936H306.424C306.523 410.936 306.523 410.936 306.622 410.837L363.748 397.874C363.847 397.874 363.947 397.874 363.947 397.874H364.144H364.244H364.343H364.442H364.541H364.64H364.739H364.838H364.937L365.135 397.973H365.234L365.333 398.072C365.432 398.171 365.63 398.27 365.63 398.369C365.63 398.468 365.63 398.666 365.63 398.765L343.65 433.595C343.254 434.287 342.561 434.683 341.868 434.881C341.868 435.277 341.67 435.277 341.472 435.277ZM306.226 412.42L340.482 433.991C340.878 434.288 341.373 434.386 341.868 434.189C342.363 434.09 342.759 433.793 343.056 433.397L364.739 398.963V398.567L364.64 399.062H364.442H364.244H364.046C363.947 399.062 363.847 399.062 363.847 399.062L306.721 412.024C306.721 412.024 306.622 412.024 306.523 412.024L306.325 412.123L306.226 412.222L305.929 411.826L306.226 412.42C306.325 412.321 306.226 412.42 306.226 412.42ZM374.243 434.09C374.144 434.09 374.045 434.09 373.946 433.991L356.026 422.71C355.828 422.611 355.729 422.216 355.828 422.018L367.115 404.108C367.214 403.91 367.412 403.811 367.61 403.91C367.808 403.91 368.006 404.108 368.006 404.306L374.639 433.496C374.639 433.694 374.639 433.892 374.441 433.991C374.441 434.09 374.342 434.09 374.243 434.09ZM357.016 422.117L373.451 432.506L367.313 405.691L357.016 422.117Z" fill="#F25F57"/>
<path d="M50.6908 261.72C50.4928 261.72 50.2948 261.72 49.9978 261.72C43.4634 261.126 37.2261 259.444 31.3847 256.575C25.6424 253.903 20.4941 250.242 16.0389 245.69C11.5836 241.139 7.92044 235.993 5.14829 230.353C2.37613 224.416 0.594033 218.182 0 211.652C0 211.454 0 211.256 0 210.959C0 209.178 0.693038 207.397 1.8811 206.111C3.26718 204.626 5.14829 203.736 7.2274 203.736H16.2369C19.9001 203.736 22.9693 206.506 23.3653 210.069C23.5633 212.048 23.9593 213.928 24.5534 215.808C25.3454 218.38 24.6524 221.151 22.7713 223.031L19.4051 226.395C23.1673 233.025 28.6126 238.566 35.246 242.227L38.6121 238.863C40.4932 236.983 43.2654 236.29 45.8395 237.082C47.7206 237.675 49.7008 238.071 51.5819 238.269C55.2451 238.665 57.9182 241.732 57.9182 245.393V254.398C57.9182 256.377 57.0272 258.356 55.5421 259.741C54.255 261.027 52.4729 261.72 50.6908 261.72ZM7.2274 204.824C5.4453 204.824 3.86121 205.517 2.67315 206.803C1.58409 207.991 1.08906 209.475 1.08906 210.959C1.08906 211.157 1.08906 211.355 1.08906 211.553C1.68309 217.886 3.36619 224.119 6.13834 229.858C8.81149 235.498 12.3757 240.545 16.8309 244.998C21.2862 249.45 26.3355 253.012 31.9788 255.684C37.7211 258.455 43.9584 260.137 50.2948 260.73C52.0769 260.928 53.76 260.335 55.0471 259.147C56.3341 257.96 57.0272 256.278 57.0272 254.596V245.591C57.0272 242.425 54.651 239.753 51.5819 239.456C49.6018 239.259 47.5226 238.863 45.6415 238.269C43.4634 237.576 41.0873 238.17 39.4042 239.753L35.642 243.315C35.444 243.513 35.246 243.513 35.0479 243.414C27.9196 239.555 22.1772 233.717 18.217 226.593C18.118 226.395 18.118 226.197 18.316 225.999L21.9792 222.338C23.5633 220.755 24.1573 218.38 23.4643 216.104C22.8703 214.125 22.4742 212.146 22.2762 210.167C21.8802 207.001 19.3061 204.725 16.1379 204.725H7.2274V204.824Z" fill="#31E7B1"/>
<path d="M44.0582 159.506C42.5731 159.506 41.088 159.111 39.7019 158.418C37.4248 157.231 35.8407 155.351 35.0487 152.778C34.2566 150.304 34.4546 147.83 35.7417 145.555C37.0288 143.279 38.8109 141.696 41.385 140.904C43.8601 140.112 46.3353 140.31 48.6124 141.597C50.8895 142.784 52.4736 144.664 53.2657 147.237C54.0577 149.71 53.8597 152.184 52.5726 154.46C51.3846 156.736 49.5035 158.319 46.9293 159.111C45.9393 159.308 45.0482 159.506 44.0582 159.506ZM44.1572 141.399C43.2661 141.399 42.4741 141.498 41.583 141.795C39.3059 142.487 37.6228 143.872 36.5337 145.95C35.4447 148.028 35.2467 150.205 35.9397 152.481C36.6327 154.757 38.0188 156.439 40.0979 157.527C42.1771 158.616 44.3552 158.814 46.6323 158.121C48.9094 157.428 50.5925 156.043 51.6816 153.965C52.7706 151.887 52.9687 149.71 52.2756 147.435C51.5826 145.159 50.1965 143.477 48.1174 142.388C46.8303 141.696 45.5432 141.399 44.1572 141.399Z" fill="#F25F57"/>
<path d="M41.879 180.582C40.889 180.582 39.8989 180.384 38.9089 179.889C37.2258 179.097 36.1367 177.613 35.4437 175.634C35.2457 174.942 35.0477 174.15 34.8497 173.457C34.6516 172.765 34.5526 171.874 34.4536 171.083C34.3546 170.192 34.2556 169.4 34.2556 168.609C34.2556 167.817 34.3546 166.927 34.5526 166.135C34.7506 165.245 35.0477 164.453 35.4437 163.76C35.8397 162.969 36.4337 162.276 37.2258 161.682C37.9188 161.089 38.8099 160.594 39.7999 160.297C40.295 160.099 40.889 160.198 41.681 160.495C42.1761 160.594 42.7701 160.792 43.4631 160.99C43.9582 161.089 44.6512 161.188 45.4432 161.188C46.2353 161.188 47.0273 161.089 47.7204 160.891C48.4134 160.693 49.1064 160.297 49.7995 159.901C50.4925 159.407 50.9875 159.011 51.3836 158.516C51.7796 158.021 52.1756 157.527 52.5716 157.131C53.0667 156.438 53.4627 156.141 54.0567 155.943C55.0468 155.647 56.0368 155.548 56.9279 155.548C57.9179 155.647 58.71 155.844 59.502 156.24C60.1951 156.636 60.9871 157.131 61.5811 157.725C62.1752 158.318 62.7692 158.912 63.2642 159.605C63.7593 160.297 64.1553 160.99 64.5513 161.781C64.9473 162.573 65.3433 163.266 65.5414 163.958C65.8384 164.651 66.0364 165.344 66.3334 166.036C66.9274 168.015 66.8284 169.895 65.9374 171.478C65.0463 173.062 63.5612 174.15 61.5811 174.744L44.3542 180.087C43.4631 180.483 42.6711 180.582 41.879 180.582ZM40.394 161.188C40.295 161.188 40.1959 161.188 40.0969 161.188C39.2059 161.485 38.4138 161.88 37.8198 162.375C37.2258 162.87 36.6317 163.464 36.3347 164.156C35.9387 164.75 35.7407 165.541 35.5427 166.333C35.3447 167.125 35.2457 167.916 35.2457 168.609C35.2457 169.4 35.2457 170.192 35.4437 170.984C35.5427 171.775 35.6417 172.567 35.8397 173.26C36.0377 173.952 36.2357 174.645 36.4337 175.337C36.9288 177.119 37.9188 178.306 39.3049 178.999C40.691 179.691 42.2751 179.79 44.0572 179.196L61.2841 173.853C63.0662 173.358 64.2543 172.369 65.0463 170.984C65.8384 169.598 65.9374 168.015 65.3433 166.333C65.1453 165.64 64.8483 164.948 64.6503 164.255C64.3533 163.563 64.0563 162.87 63.6603 162.177C63.2642 161.386 62.8682 160.792 62.4722 160.099C62.0762 159.506 61.4821 158.912 60.9871 158.318C60.3931 157.725 59.799 157.329 59.106 157.032C58.413 156.735 57.7199 156.537 56.8289 156.438C56.0368 156.339 55.1458 156.438 54.2547 156.735C54.0567 156.834 53.7597 156.933 53.2647 157.626C52.9677 158.021 52.5716 158.516 52.0766 159.011C51.6806 159.506 51.0866 160 50.3935 160.495C49.7005 160.99 48.9084 161.386 48.0174 161.682C47.2253 161.979 46.3343 162.078 45.4432 162.078C44.5522 162.078 43.7601 161.979 43.1661 161.781C42.4731 161.584 41.879 161.485 41.384 161.287C40.889 161.287 40.592 161.188 40.394 161.188Z" fill="#F25F57"/>
</svg>
